<svg width="161" height="80" viewBox="0 0 161 80" fill="none" xmlns="http://www.w3.org/2000/svg">
<g filter="url(#filter0_d_1825_11061)">
<path d="M64.1846 23.26H56.6846L54.0746 28.21L48.3746 25.87L58.0346 5.8L64.9346 5.86C65.4746 7.64 66.0546 9.42 66.6746 11.2C67.3146 12.98 67.9546 14.76 68.5946 16.54C69.2346 18.3 69.8646 20.07 70.4846 21.85C71.1046 23.61 71.6846 25.38 72.2246 27.16L65.8946 28.69L64.1846 23.26ZM63.3146 17.8L61.2446 12.04L58.6346 17.8H63.3146ZM87.9699 17.05C88.6699 17.61 89.1899 18.3 89.5299 19.12C89.8899 19.92 90.0699 20.77 90.0699 21.67C90.0499 22.73 89.8399 23.63 89.4399 24.37C89.0399 25.09 88.5099 25.69 87.8499 26.17C87.2099 26.63 86.4599 26.99 85.5999 27.25C84.7599 27.51 83.8799 27.7 82.9599 27.82C82.0399 27.92 81.1099 27.98 80.1699 28C79.2499 28.02 78.3899 28.03 77.5899 28.03H73.6299V7.18C74.7499 6.6 75.9499 6.23 77.2299 6.07C78.5299 5.89 79.7999 5.8 81.0399 5.8C82.0399 5.8 83.0599 5.96 84.0999 6.28C85.1399 6.58 86.0799 7.03 86.9199 7.63C87.7599 8.23 88.4499 8.97 88.9899 9.85C89.5299 10.73 89.7999 11.74 89.7999 12.88C89.7999 13.68 89.6299 14.46 89.2899 15.22C88.9699 15.96 88.5299 16.57 87.9699 17.05ZM79.4199 15.19C79.6799 15.25 79.9799 15.28 80.3199 15.28C80.7399 15.28 81.1699 15.23 81.6099 15.13C82.0499 15.01 82.4499 14.85 82.8099 14.65C83.1699 14.43 83.4599 14.16 83.6799 13.84C83.9199 13.52 84.0399 13.14 84.0399 12.7C84.0399 12.38 83.9499 12.11 83.7699 11.89C83.5899 11.65 83.3599 11.46 83.0799 11.32C82.7999 11.18 82.4899 11.08 82.1499 11.02C81.8099 10.96 81.4699 10.93 81.1299 10.93C80.7499 10.93 80.4099 10.97 80.1099 11.05C79.8099 11.11 79.5799 11.2 79.4199 11.32V15.19ZM79.4199 23.17C79.7199 23.31 80.0999 23.38 80.5599 23.38C80.9999 23.38 81.4399 23.32 81.8799 23.2C82.3399 23.08 82.7499 22.9 83.1099 22.66C83.4899 22.42 83.7899 22.13 84.0099 21.79C84.2499 21.45 84.3699 21.06 84.3699 20.62C84.3699 20.22 84.2699 19.89 84.0699 19.63C83.8699 19.35 83.6099 19.13 83.2899 18.97C82.9899 18.79 82.6399 18.66 82.2399 18.58C81.8399 18.5 81.4499 18.46 81.0699 18.46C80.4499 18.46 79.8999 18.54 79.4199 18.7V23.17ZM99.7491 28.96L90.3291 8.41L96.2991 5.74L101.819 17.56L105.239 5.83L111.629 7.54L105.779 27.91L99.7491 28.96Z" fill="#393939"/>
</g>
<path d="M0.5 58C0.5 45.8497 10.3497 36 22.5 36H138.5C150.65 36 160.5 45.8497 160.5 58C160.5 70.1503 150.65 80 138.5 80H22.5C10.3497 80 0.5 70.1503 0.5 58Z" fill="#24AD94"/>
<path d="M44.1061 44.6665C44.1061 44.6665 34.4092 55.4128 34.4092 61.7809C34.4092 67.0506 38.7567 71.3332 44.1061 71.3332C49.4556 71.3332 53.8031 67.0506 53.8031 61.7809C53.8031 55.4128 44.1061 44.6665 44.1061 44.6665ZM44.1061 68.1491C40.5344 68.1491 37.6415 65.2993 37.6415 61.7809C37.6415 58.963 40.8738 53.7571 44.1061 49.6655C47.3385 53.7411 50.5708 58.963 50.5708 61.7809C50.5708 65.2993 47.6779 68.1491 44.1061 68.1491Z" fill="#393939"/>
<path d="M44.1061 68.1491C40.5344 68.1491 37.6415 65.2993 37.6415 61.7809C37.6415 58.963 40.8738 53.7571 44.1061 49.6655C47.3385 53.7411 50.5708 58.963 50.5708 61.7809C50.5708 65.2993 47.6779 68.1491 44.1061 68.1491Z" fill="#F4B40C"/>
<rect x="43.8027" y="50" width="16" height="16" rx="8" fill="#24AD94"/>
<path d="M57.5297 55.5155L50.2752 62.5816L46.0752 58.1188L47.8468 56.3932L50.2752 58.7585L55.7581 53.418L57.5297 55.5155Z" fill="#393939"/>
<path d="M80.4997 44.6665C80.4997 44.6665 70.8027 55.4128 70.8027 61.7809C70.8027 67.0506 75.1502 71.3332 80.4997 71.3332C85.8492 71.3332 90.1967 67.0506 90.1967 61.7809C90.1967 55.4128 80.4997 44.6665 80.4997 44.6665ZM80.4997 68.1491C76.928 68.1491 74.0351 65.2993 74.0351 61.7809C74.0351 58.963 77.2674 53.7571 80.4997 49.6655C83.732 53.7411 86.9644 58.963 86.9644 61.7809C86.9644 65.2993 84.0714 68.1491 80.4997 68.1491Z" fill="#393939"/>
<path d="M80.4997 68.1491C76.928 68.1491 74.0351 65.2993 74.0351 61.7809C74.0351 58.963 77.2674 53.7571 80.4997 49.6655C83.732 53.7411 86.9644 58.963 86.9644 61.7809C86.9644 65.2993 84.0714 68.1491 80.4997 68.1491Z" fill="#F4B40C"/>
<rect x="80.1963" y="50" width="16" height="16" rx="8" fill="#24AD94"/>
<path d="M93.9233 55.5155L86.6688 62.5816L82.4688 58.1188L84.2404 56.3932L86.6688 58.7585L92.1517 53.418L93.9233 55.5155Z" fill="#393939"/>
<path d="M116.894 44.6665C116.894 44.6665 107.197 55.4128 107.197 61.7809C107.197 67.0506 111.545 71.3332 116.894 71.3332C122.244 71.3332 126.591 67.0506 126.591 61.7809C126.591 55.4128 116.894 44.6665 116.894 44.6665ZM116.894 68.1491C113.323 68.1491 110.43 65.2993 110.43 61.7809C110.43 58.963 113.662 53.7571 116.894 49.6655C120.127 53.7411 123.359 58.963 123.359 61.7809C123.359 65.2993 120.466 68.1491 116.894 68.1491Z" fill="#393939"/>
<path d="M116.894 68.1491C113.323 68.1491 110.43 65.2993 110.43 61.7809C110.43 58.963 113.662 53.7571 116.894 49.6655C120.127 53.7411 123.359 58.963 123.359 61.7809C123.359 65.2993 120.466 68.1491 116.894 68.1491Z" fill="#F4B40C"/>
<defs>
<filter id="filter0_d_1825_11061" x="44.375" y="5.74023" width="71.2539" height="31.2197" filterUnits="userSpaceOnUse" color-interpolation-filters="sRGB">
<feFlood flood-opacity="0" result="BackgroundImageFix"/>
<feColorMatrix in="SourceAlpha" type="matrix" values="0 0 0 0 0 0 0 0 0 0 0 0 0 0 0 0 0 0 127 0" result="hardAlpha"/>
<feOffset dy="4"/>
<feGaussianBlur stdDeviation="2"/>
<feComposite in2="hardAlpha" operator="out"/>
<feColorMatrix type="matrix" values="0 0 0 0 0 0 0 0 0 0 0 0 0 0 0 0 0 0 0.25 0"/>
<feBlend mode="normal" in2="BackgroundImageFix" result="effect1_dropShadow_1825_11061"/>
<feBlend mode="normal" in="SourceGraphic" in2="effect1_dropShadow_1825_11061" result="shape"/>
</filter>
</defs>
</svg>
