<svg width="192" height="192" viewBox="0 0 192 192" fill="none" xmlns="http://www.w3.org/2000/svg">
<circle cx="96" cy="96" r="96" fill="#F4B40C"/>
<path d="M140.606 129.335C140.036 129.076 136.49 128.19 136.471 127.955C138.686 124.13 139.844 118.818 139.022 114.452C138.808 113.316 138.406 112.341 138.106 111.255C138.027 110.97 138.147 110.601 138.027 110.374C137.382 109.156 134.484 109.554 133.278 109.329C134.194 105.608 133.52 101.155 131.423 97.9181C130.886 97.089 129.454 95.2534 128.591 94.8892C127.647 94.4891 124.907 95.7207 123.797 95.6608C123.977 95.402 124.044 95.0306 124.066 94.7239C124.322 91.072 121.086 85.1989 118.118 83.1717C116.828 82.2899 114.887 82.8314 113.487 83.2244C113.031 83.3538 112.576 83.5 112.125 83.6605L113.865 72.5756C114.477 69.7193 110.605 69.9038 108.606 69.4245C108.251 69.3407 108.064 69.6474 108.158 68.986C113.616 63.5586 115.824 54.5991 113.096 47.3122C110.454 40.2577 100.755 37.1953 93.9924 39.6083C90.677 40.792 88.5195 42.9271 86.2853 45.515C80.2084 34.4732 65.1035 33.5818 55.8598 41.324C48.4692 47.511 45.36 58.953 51.6958 67.0139C52.1345 67.5723 54.4646 69.6689 54.515 69.8846C54.7187 70.7472 52.3383 70.3255 52.4126 72.8535C56.718 99.9429 59.9135 127.212 64.684 154.222C64.7271 155.9 61.5604 162.151 62.6775 163.222C62.9987 163.529 66.9733 163.862 67.8387 163.905C78.8755 164.444 90.3438 163.464 101.426 163.905C105.099 163.407 100.75 157.807 100.762 156.024L99.9495 155.006C100.156 154.951 100.34 154.912 100.47 154.917C100.952 154.936 103.279 155.9 104.109 156.101C119.285 159.762 135.531 149.032 141.155 135.064C141.539 134.111 142.181 132.294 142.34 131.317C142.531 130.138 141.496 129.74 140.609 129.337L140.606 129.335ZM136.195 112.029C137.756 117.301 136.531 122.714 134.206 127.569L129.579 127.339C126.482 127.521 123.354 127.641 120.371 128.614C120.18 128.491 120.206 128.422 120.216 128.23C120.24 127.729 120.566 126.833 120.63 126.246C120.796 124.717 120.714 122.597 120.501 121.066C120.271 119.415 119.659 117.78 119.472 116.149C122.956 113.973 126.846 112.533 130.905 111.953C132.65 111.704 134.477 111.514 136.195 112.027V112.029ZM125.063 97.8054C125.47 97.688 127.829 97.0985 128.04 97.1489C128.711 97.3118 130.162 100.46 130.44 101.227C131.37 103.801 131.161 106.597 131.017 109.276L130.581 109.707C127.51 110.091 124.511 111.052 121.757 112.466C121.309 112.696 118.701 114.351 118.562 114.232C117.351 111.023 115.215 108.112 112.856 105.636C112.638 105.207 113.738 104.433 114.038 104.158C117.138 101.306 121.023 98.97 125.065 97.8054H125.063ZM117.401 84.6573C119.075 86.8571 120.472 89.306 121.239 91.9682C121.647 93.3796 121.68 94.8844 122.342 96.2119C119.077 97.7311 115.975 99.5858 113.261 101.989L111.185 104.309C110.485 103.954 109.862 103.588 109.126 104.148C108.915 100.875 107.992 97.839 106.427 94.9467C106.038 94.2279 105.199 93.2502 104.938 92.632C104.689 92.0377 105.78 90.5521 106.199 90.0968C109.011 87.044 113.53 85.6637 117.404 84.6573H117.401ZM98.7029 110.045C98.3146 106.652 96.0109 103.93 93.8558 101.448L91.1924 98.9676C92.5277 94.9851 95.5578 91.6567 99.2064 89.6271C99.4796 89.687 102.258 92.989 102.651 93.5114C105.245 96.9356 106.58 101.172 106.717 105.423C103.823 107.33 101.153 109.566 98.7629 112.082C98.6142 111.418 98.7797 110.712 98.7029 110.045ZM97.9814 113.077C97.0872 114.112 96.0612 115.281 95.3468 116.438C94.7475 117.411 94.3088 118.926 93.7527 119.858C93.6496 120.03 93.6784 120.124 93.4123 120.078C89.7925 115.823 85.3864 112.511 80.1844 110.496C79.7745 106.104 81.2272 101.115 84.2093 97.7934C88.6442 99.5834 92.4606 102.605 94.9417 106.739C96.1667 108.778 96.5622 111.16 97.9814 113.077ZM68.2414 39.3279C74.9681 38.7888 80.3354 41.6139 83.7467 47.2978C84.4155 48.4144 84.6408 50.8658 86.6689 50.2499C88.3398 49.7419 87.3305 47.6812 87.6158 47.0222C88.287 45.4695 93.2157 42.558 94.9033 42.0093C101.026 40.0157 109.081 43.1547 110.655 49.7467C112.434 57.2038 109.634 64.704 103.5 69.1298C98.5519 68.8375 93.1797 68.5619 88.2175 68.8183C86.3333 68.9165 81.3159 69.3287 79.9711 70.4549C78.1564 71.9765 80.1077 74.7753 77.9046 77.0613C75.3612 79.6995 69.4904 80.2866 66.398 78.3553C63.6508 76.6396 66.3165 72.8559 66.5059 71.042C66.8175 68.0323 64.6312 69.3311 63.3631 69.4293C62.2939 69.5108 61.1577 69.403 60.0693 69.4293C59.0457 69.4557 58.4991 70.1075 57.3509 69.4413C57.0153 69.2472 55.7759 67.879 55.4283 67.474C45.849 56.3292 54.4191 40.4302 68.2438 39.3231L68.2414 39.3279ZM55.7136 71.8208L62.9076 71.5236C62.8022 73.1291 62.2364 74.5069 62.2915 76.1651C62.5792 84.8299 79.2663 84.3003 81.5005 76.4694C82.4258 73.2273 80.2371 72.1562 84.6217 71.8112C87.8843 71.5548 91.54 71.5787 94.8075 71.5116C100.16 71.4014 105.523 71.5116 110.852 71.8232L108.846 85.1534C106.554 86.4497 104.521 88.1966 103.063 90.3747C101.448 88.9466 99.5588 86.9649 97.2742 88.0648C95.0304 89.1455 92.125 92.251 90.8736 94.398C90.2671 95.438 89.7349 96.6481 89.4401 97.8126C87.3929 97.041 85.5446 95.8645 83.2696 95.9316C82.445 95.9555 81.944 96.6241 81.4525 97.2639C79.3358 100.01 77.9526 104.627 77.8615 108.066C77.8519 108.418 78.1468 109.82 77.8136 109.882C77.1591 109.696 76.3297 109.482 75.6609 109.408C75.0256 109.338 72.7338 109.243 72.2424 109.446C71.4345 109.782 70.9311 111.517 70.6555 112.365C66.6617 124.665 74.5677 141.676 84.1494 149.506C85.7603 150.822 87.9706 152.276 90.3414 153.412L66.8007 153.731C66.7648 153.091 66.875 152.427 66.8007 151.788C63.6196 125.07 58.9067 98.5243 55.716 71.8208H55.7136ZM65.6045 160.903L66.6401 156.108C66.8654 155.782 67.2082 155.849 67.5367 155.806C71.3099 155.332 75.4739 156.084 79.2255 156.132C85.511 156.213 91.8085 156.06 98.0941 156.103L99.4653 160.903H65.6045ZM99.5132 151.268C99.2903 152.008 99.0218 152.737 98.7005 153.441L98.5855 153.297L96.4783 153.326C86.887 151.232 79.1033 142.112 75.2725 133.524C72.2184 126.673 70.6243 118.204 73.5633 111.059C81.8385 111.562 88.9199 117.378 93.5633 123.934C98.7773 131.295 102.167 142.409 99.5132 151.268ZM94.9465 121.895C95.7999 120.474 96.4591 118.926 97.3821 117.543C100.026 113.573 104.018 109.981 108.081 107.51C108.433 107.297 110.056 106.245 110.286 106.29C115.57 111.025 118.566 118.538 118.228 125.587C118.173 126.728 117.871 127.859 117.893 129.009C117.715 129.498 115.742 130.09 115.136 130.382C111.408 132.184 107.86 134.585 105.216 137.822C104.264 138.989 103.541 140.365 102.73 141.625C101.922 134.451 99.1512 127.77 94.9489 121.897L94.9465 121.895ZM136.792 138.592C130.044 149.03 116.826 156.951 104.217 153.51C103.809 153.4 101.611 152.725 101.56 152.487C101.942 151.296 102.229 150.077 102.428 148.843C102.632 147.58 102.584 144.223 102.879 143.442C103.612 141.515 107.139 137.952 108.738 136.562C116.368 129.934 128.11 128.039 137.629 130.979C138.12 131.13 139.983 131.616 140.067 132.083C140.163 132.62 137.293 137.813 136.792 138.589V138.592Z" fill="#FBFAFC"/>
<path d="M112.469 36.4628C113.162 36.2711 113.993 34.7615 114.377 34.1049C115.818 31.656 116.537 28.9243 116.918 26.1351C116.947 25.8116 116.714 25.6439 116.405 25.7397C115.506 27.3715 114.715 29.0561 113.814 30.6903C113.13 31.9292 111.817 33.6041 111.328 34.831C110.983 35.6984 111.448 36.7432 112.466 36.4628H112.469Z" fill="#FBFAFC"/>
<path d="M106.759 33.4839C106.579 31.8425 105.591 28.2242 104.985 26.6523C104.836 26.2689 104.51 24.9558 103.971 25.3272C103.506 25.6483 103.985 33.6637 104.923 34.6078C105.788 35.4776 106.903 34.8114 106.756 33.4839H106.759Z" fill="#FBFAFC"/>
<path d="M116.919 41.5551C117.368 41.7228 118.744 40.932 119.197 40.6709C121.04 39.6069 122.946 38.2315 124.737 37.0573C124.531 36.7267 124.475 36.9567 124.274 36.9855C122.522 37.2443 120.012 38.3393 118.473 39.2379C117.871 39.5878 115.306 40.9512 116.919 41.5575V41.5551Z" fill="#FBFAFC"/>
<path d="M143.689 130.878C143.119 130.619 139.573 129.733 139.554 129.498C141.769 125.673 142.927 120.361 142.105 115.995C141.891 114.859 141.489 113.884 141.189 112.798C141.11 112.513 141.23 112.144 141.11 111.917C140.465 110.699 137.567 111.097 136.361 110.872C137.277 107.151 136.603 102.698 134.506 99.461C133.969 98.6319 132.538 96.7964 131.675 96.4322C130.73 96.032 127.99 97.2637 126.88 97.2038C127.06 96.945 127.127 96.5736 127.149 96.2668C127.405 92.615 124.169 86.7419 121.201 84.7146C119.911 83.8328 117.97 84.3744 116.57 84.7674C116.114 84.8968 115.659 85.0429 115.208 85.2035L116.948 74.1185C117.56 71.2622 113.688 71.4467 111.689 70.9675C111.334 70.8836 111.147 71.1903 111.241 70.529C116.699 65.1015 118.907 56.1421 116.179 48.8551C113.537 41.8006 103.838 38.7383 97.0754 41.1513C93.7601 42.335 91.6026 44.47 89.3683 47.058C83.2914 36.0162 68.1865 35.1248 58.9428 42.867C51.5522 49.054 48.443 60.496 54.7788 68.5569C55.2175 69.1152 57.5476 71.2119 57.598 71.4276C57.8017 72.2902 55.4213 71.8685 55.4956 74.3965C59.801 101.486 62.9965 128.755 67.767 155.765C67.8101 157.442 64.6434 163.694 65.7605 164.765C66.0817 165.072 70.0563 165.405 70.9217 165.448C81.9585 165.987 93.4268 165.007 104.509 165.448C108.182 164.95 103.833 159.35 103.845 157.567L103.033 156.549C103.239 156.494 103.423 156.455 103.553 156.46C104.035 156.479 106.362 157.442 107.192 157.644C122.368 161.305 138.614 150.575 144.238 136.607C144.622 135.654 145.264 133.837 145.423 132.86C145.614 131.681 144.579 131.283 143.692 130.88L143.689 130.878ZM139.278 113.572C140.839 118.844 139.614 124.257 137.289 129.112L132.662 128.882C129.565 129.064 126.437 129.184 123.454 130.157C123.263 130.034 123.289 129.965 123.299 129.773C123.323 129.272 123.649 128.376 123.713 127.789C123.879 126.26 123.797 124.14 123.584 122.609C123.354 120.958 122.742 119.323 122.555 117.692C126.039 115.516 129.929 114.076 133.988 113.496C135.733 113.247 137.56 113.057 139.278 113.57V113.572ZM128.146 99.3484C128.553 99.231 130.912 98.6415 131.123 98.6918C131.794 98.8548 133.245 102.003 133.523 102.77C134.453 105.344 134.244 108.14 134.101 110.819L133.664 111.25C130.593 111.634 127.594 112.595 124.84 114.009C124.392 114.239 121.784 115.894 121.645 115.775C120.434 112.566 118.298 109.655 115.939 107.179C115.721 106.75 116.821 105.976 117.121 105.701C120.221 102.849 124.106 100.513 128.148 99.3484H128.146ZM120.484 86.2003C122.158 88.4 123.555 90.849 124.322 93.5112C124.73 94.9226 124.763 96.4274 125.425 97.7549C122.16 99.2741 119.058 101.129 116.344 103.532L114.268 105.852C113.568 105.497 112.945 105.13 112.209 105.691C111.998 102.418 111.075 99.3819 109.51 96.4897C109.121 95.7708 108.282 94.7932 108.021 94.1749C107.772 93.5807 108.863 92.095 109.282 91.6397C112.094 88.5869 116.613 87.2067 120.487 86.2003H120.484ZM101.786 111.588C101.398 108.195 99.0939 105.473 96.9388 102.991L94.2755 100.511C95.6107 96.528 98.6408 93.1997 102.289 91.1701C102.563 91.23 105.341 94.532 105.734 95.0544C108.328 98.4786 109.663 102.715 109.8 106.966C106.906 108.873 104.236 111.109 101.846 113.625C101.697 112.961 101.863 112.254 101.786 111.588ZM101.064 114.62C100.17 115.655 99.1442 116.824 98.4298 117.981C97.8305 118.954 97.3918 120.469 96.8357 121.401C96.7326 121.573 96.7614 121.667 96.4953 121.621C92.8755 117.366 88.4694 114.054 83.2674 112.039C82.8575 107.647 84.3102 102.658 87.2924 99.3364C91.7272 101.126 95.5436 104.148 98.0247 108.282C99.2497 110.321 99.6452 112.703 101.064 114.62ZM71.3245 40.8709C78.0511 40.3318 83.4184 43.1569 86.8297 48.8408C87.4985 49.9574 87.7238 52.4087 89.7519 51.7929C91.4228 51.2849 90.4135 49.2241 90.6988 48.5652C91.37 47.0124 96.2987 44.101 97.9864 43.5523C104.109 41.5586 112.164 44.6977 113.738 51.2897C115.517 58.7467 112.717 66.2469 106.583 70.6728C101.635 70.3804 96.2628 70.1049 91.3005 70.3613C89.4163 70.4595 84.3989 70.8717 83.0541 71.9979C81.2394 73.5195 83.1907 76.3183 80.9877 78.6043C78.4442 81.2425 72.5734 81.8296 69.481 79.8982C66.7338 78.1825 69.3995 74.3989 69.5889 72.585C69.9005 69.5753 67.7142 70.8741 66.4461 70.9723C65.377 71.0538 64.2407 70.9459 63.1523 70.9723C62.1287 70.9987 61.5821 71.6504 60.4339 70.9843C60.0983 70.7902 58.8589 69.4219 58.5113 69.017C48.932 57.8721 57.5021 41.9732 71.3269 40.8661L71.3245 40.8709ZM58.7966 73.3637L65.9906 73.0666C65.8852 74.6721 65.3194 76.0499 65.3746 77.7081C65.6622 86.3728 82.3493 85.8433 84.5835 78.0124C85.5088 74.7703 83.3202 73.6992 87.7047 73.3541C90.9673 73.0977 94.6231 73.1217 97.8905 73.0546C103.243 72.9444 108.606 73.0546 113.935 73.3661L111.929 86.6963C109.637 87.9927 107.604 89.7395 106.146 91.9177C104.531 90.4896 102.642 88.5079 100.357 89.6077C98.1134 90.6884 95.208 93.7939 93.9566 95.941C93.3501 96.9809 92.8179 98.191 92.5231 99.3556C90.4759 98.584 88.6276 97.4075 86.3526 97.4746C85.528 97.4985 85.027 98.1671 84.5355 98.8069C82.4188 101.553 81.0356 106.17 80.9445 109.609C80.9349 109.961 81.2298 111.363 80.8966 111.425C80.2421 111.238 79.4127 111.025 78.7439 110.951C78.1086 110.881 75.8168 110.786 75.3254 110.989C74.5176 111.325 74.0141 113.06 73.7385 113.908C69.7447 126.208 77.6507 143.218 87.2324 151.049C88.8433 152.365 91.0536 153.819 93.4244 154.955L69.8837 155.274C69.8478 154.634 69.958 153.97 69.8837 153.331C66.7026 126.613 61.9897 100.067 58.799 73.3637H58.7966ZM68.6875 162.446L69.7231 157.651C69.9485 157.325 70.2913 157.392 70.6197 157.349C74.3929 156.875 78.5569 157.627 82.3085 157.675C88.594 157.756 94.8915 157.603 101.177 157.646L102.548 162.446H68.6875ZM102.596 152.811C102.373 153.551 102.105 154.279 101.784 154.984L101.668 154.84L99.5613 154.869C89.97 152.775 82.1863 143.655 78.3555 135.067C75.3014 128.216 73.7073 119.747 76.6463 112.602C84.9215 113.105 92.0029 118.921 96.6463 125.477C101.86 132.838 105.25 143.952 102.596 152.811ZM98.0295 123.438C98.8829 122.017 99.5421 120.469 100.465 119.086C103.109 115.116 107.101 111.524 111.164 109.053C111.516 108.84 113.139 107.788 113.369 107.833C118.653 112.568 121.649 120.081 121.311 127.13C121.256 128.271 120.954 129.402 120.976 130.552C120.798 131.041 118.825 131.633 118.219 131.925C114.491 133.727 110.943 136.128 108.299 139.365C107.347 140.532 106.624 141.908 105.813 143.168C105.005 135.994 102.234 129.313 98.0319 123.44L98.0295 123.438ZM139.875 140.135C133.127 150.573 119.909 158.494 107.3 155.053C106.892 154.943 104.694 154.267 104.643 154.03C105.025 152.839 105.312 151.62 105.511 150.386C105.715 149.123 105.667 145.766 105.962 144.985C106.695 143.058 110.222 139.495 111.821 138.105C119.451 131.477 131.193 129.582 140.712 132.522C141.203 132.673 143.066 133.159 143.15 133.626C143.246 134.163 140.376 139.356 139.875 140.132V140.135Z" fill="#393939"/>
<path d="M115.552 38.0058C116.245 37.8141 117.076 36.3045 117.46 35.6479C118.901 33.199 119.62 30.4673 120.001 27.6781C120.03 27.3546 119.797 27.1868 119.488 27.2827C118.589 28.9145 117.798 30.5991 116.897 32.2333C116.213 33.4721 114.9 35.1471 114.411 36.374C114.066 37.2414 114.531 38.2862 115.549 38.0058H115.552Z" fill="#393939"/>
<path d="M109.842 35.0269C109.662 33.3855 108.674 29.7672 108.068 28.1953C107.919 27.8119 107.593 26.4987 107.054 26.8702C106.589 27.1912 107.068 35.2066 108.006 36.1507C108.871 37.0206 109.986 36.3544 109.839 35.0269H109.842Z" fill="#393939"/>
<path d="M120.002 43.098C120.451 43.2658 121.827 42.475 122.28 42.2138C124.123 41.1499 126.029 39.7745 127.82 38.6003C127.614 38.2696 127.558 38.4997 127.357 38.5284C125.605 38.7872 123.095 39.8823 121.556 40.7809C120.954 41.1307 118.389 42.4942 120.002 43.1004V43.098Z" fill="#393939"/>
</svg>
