<svg width="21" height="20" viewBox="0 0 21 20" fill="none" xmlns="http://www.w3.org/2000/svg">
<path d="M6.50555 20C5.95504 20 5.48377 19.8042 5.09174 19.4125C4.69971 19.0208 4.5037 18.55 4.5037 18C4.5037 17.45 4.69971 16.9792 5.09174 16.5875C5.48377 16.1958 5.95504 16 6.50555 16C7.05606 16 7.52733 16.1958 7.91936 16.5875C8.31138 16.9792 8.5074 17.45 8.5074 18C8.5074 18.55 8.31138 19.0208 7.91936 19.4125C7.52733 19.8042 7.05606 20 6.50555 20ZM16.5148 20C15.9643 20 15.493 19.8042 15.101 19.4125C14.709 19.0208 14.5129 18.55 14.5129 18C14.5129 17.45 14.709 16.9792 15.101 16.5875C15.493 16.1958 15.9643 16 16.5148 16C17.0653 16 17.5366 16.1958 17.9286 16.5875C18.3206 16.9792 18.5166 17.45 18.5166 18C18.5166 18.55 18.3206 19.0208 17.9286 19.4125C17.5366 19.8042 17.0653 20 16.5148 20ZM5.65476 4L8.05698 9H15.0635L17.816 4H5.65476ZM4.70388 2H19.4675C19.8512 2 20.1432 2.17083 20.3433 2.5125C20.5435 2.85417 20.5519 3.2 20.3684 3.55L16.8151 9.95C16.6316 10.2833 16.3855 10.5417 16.0769 10.725C15.7683 10.9083 15.4305 11 15.0635 11H7.60657L6.50555 13H18.5166V15H6.50555C5.75486 15 5.18766 14.6708 4.80398 14.0125C4.42029 13.3542 4.40361 12.7 4.75393 12.05L6.10518 9.6L2.50185 2H0.5V0H3.75301L4.70388 2Z" fill="#F4B40C"/>
</svg>
