<svg width="21" height="18" viewBox="0 0 21 18" fill="none" xmlns="http://www.w3.org/2000/svg">
<path d="M10.5 18.0011C9.85502 17.4291 9.12602 16.8341 8.35502 16.2011H8.34502C5.63002 13.9811 2.55302 11.4691 1.19402 8.45912C0.74754 7.50085 0.510927 6.45825 0.500011 5.40112C0.49703 3.95061 1.07879 2.56011 2.11383 1.54389C3.14887 0.527673 4.54981 -0.0284812 6.00002 0.00112428C7.18065 0.00298908 8.33586 0.344205 9.32802 0.984124C9.76399 1.26709 10.1584 1.60938 10.5 2.00112C10.8435 1.61092 11.2381 1.26883 11.673 0.984124C12.6648 0.344079 13.8197 0.00284283 15 0.00112428C16.4502 -0.0284812 17.8512 0.527673 18.8862 1.54389C19.9213 2.56011 20.503 3.95061 20.5 5.40112C20.4898 6.45994 20.2532 7.50432 19.806 8.46412C18.447 11.4741 15.371 13.9851 12.656 16.2011L12.646 16.2091C11.874 16.8381 11.146 17.4331 10.501 18.0091L10.5 18.0011ZM6.00002 2.00112C5.06853 1.98947 4.17009 2.34597 3.50002 2.99312C2.85441 3.62729 2.49358 4.49617 2.49994 5.40112C2.51135 6.17163 2.68585 6.93098 3.01202 7.62912C3.65353 8.92783 4.51913 10.1032 5.56902 11.1011C6.56002 12.1011 7.70002 13.0691 8.68602 13.8831C8.95902 14.1081 9.23702 14.3351 9.51502 14.5621L9.69002 14.7051C9.95702 14.9231 10.233 15.1491 10.5 15.3711L10.513 15.3591L10.519 15.3541H10.525L10.534 15.3471H10.539H10.544L10.562 15.3321L10.603 15.2991L10.61 15.2931L10.621 15.2851H10.627L10.636 15.2771L11.3 14.7321L11.474 14.5891C11.755 14.3601 12.033 14.1331 12.306 13.9081C13.292 13.0941 14.433 12.1271 15.424 11.1221C16.4741 10.1247 17.3397 8.94964 17.981 7.65112C18.3131 6.94693 18.4901 6.17963 18.5001 5.40112C18.5042 4.49896 18.1435 3.63342 17.5 3.00112C16.8312 2.35104 15.9326 1.99161 15 2.00112C13.8619 1.99145 12.774 2.46849 12.01 3.31212L10.5 5.05212L8.99002 3.31212C8.22609 2.46849 7.1381 1.99145 6.00002 2.00112Z" fill="#675594"/>
</svg>
