<svg width="161" height="80" viewBox="0 0 161 80" fill="none" xmlns="http://www.w3.org/2000/svg">
<g filter="url(#filter0_d_1825_11079)">
<path d="M57.8968 28L58.1068 5.83H64.4968L64.2868 28H57.8968ZM80.0597 17.05C80.7597 17.61 81.2797 18.3 81.6197 19.12C81.9797 19.92 82.1597 20.77 82.1597 21.67C82.1397 22.73 81.9297 23.63 81.5297 24.37C81.1297 25.09 80.5997 25.69 79.9397 26.17C79.2997 26.63 78.5497 26.99 77.6897 27.25C76.8497 27.51 75.9697 27.7 75.0497 27.82C74.1297 27.92 73.1997 27.98 72.2597 28C71.3397 28.02 70.4797 28.03 69.6797 28.03H65.7197V7.18C66.8397 6.6 68.0397 6.23 69.3197 6.07C70.6197 5.89 71.8897 5.8 73.1297 5.8C74.1297 5.8 75.1497 5.96 76.1897 6.28C77.2297 6.58 78.1697 7.03 79.0097 7.63C79.8497 8.23 80.5397 8.97 81.0797 9.85C81.6197 10.73 81.8897 11.74 81.8897 12.88C81.8897 13.68 81.7197 14.46 81.3797 15.22C81.0597 15.96 80.6197 16.57 80.0597 17.05ZM71.5097 15.19C71.7697 15.25 72.0697 15.28 72.4097 15.28C72.8297 15.28 73.2597 15.23 73.6997 15.13C74.1397 15.01 74.5397 14.85 74.8997 14.65C75.2597 14.43 75.5497 14.16 75.7697 13.84C76.0097 13.52 76.1297 13.14 76.1297 12.7C76.1297 12.38 76.0397 12.11 75.8597 11.89C75.6797 11.65 75.4497 11.46 75.1697 11.32C74.8897 11.18 74.5797 11.08 74.2397 11.02C73.8997 10.96 73.5597 10.93 73.2197 10.93C72.8397 10.93 72.4997 10.97 72.1997 11.05C71.8997 11.11 71.6697 11.2 71.5097 11.32V15.19ZM71.5097 23.17C71.8097 23.31 72.1897 23.38 72.6497 23.38C73.0897 23.38 73.5297 23.32 73.9697 23.2C74.4297 23.08 74.8397 22.9 75.1997 22.66C75.5797 22.42 75.8797 22.13 76.0997 21.79C76.3397 21.45 76.4597 21.06 76.4597 20.62C76.4597 20.22 76.3597 19.89 76.1597 19.63C75.9597 19.35 75.6997 19.13 75.3797 18.97C75.0797 18.79 74.7297 18.66 74.3297 18.58C73.9297 18.5 73.5397 18.46 73.1597 18.46C72.5397 18.46 71.9897 18.54 71.5097 18.7V23.17ZM100.469 5.35C100.949 6.67 101.329 8.19 101.609 9.91C101.909 11.63 102.059 13.38 102.059 15.16C102.059 16.82 101.909 18.44 101.609 20.02C101.309 21.58 100.799 22.98 100.079 24.22C99.3591 25.44 98.4091 26.43 97.2291 27.19C96.0691 27.93 94.6191 28.3 92.8791 28.3C90.9591 28.3 89.3591 27.92 88.0791 27.16C86.7991 26.38 85.7791 25.36 85.0191 24.1C84.2591 22.84 83.7191 21.42 83.3991 19.84C83.0791 18.24 82.9191 16.59 82.9191 14.89C82.9191 13.33 83.0291 11.79 83.2491 10.27C83.4891 8.73 83.7791 7.34 84.1191 6.1L91.0191 7.78C90.6391 9.34 90.3391 10.9 90.1191 12.46C89.9191 14.02 89.8191 15.58 89.8191 17.14C89.8191 17.56 89.8591 18.02 89.9391 18.52C90.0391 19 90.1991 19.46 90.4191 19.9C90.6391 20.34 90.9191 20.71 91.2591 21.01C91.5991 21.29 92.0391 21.43 92.5791 21.43C93.1391 21.43 93.5891 21.28 93.9291 20.98C94.2691 20.66 94.5291 20.28 94.7091 19.84C94.9091 19.38 95.0391 18.89 95.0991 18.37C95.1591 17.83 95.1891 17.33 95.1891 16.87C95.1491 15.23 94.9891 13.61 94.7091 12.01C94.4291 10.41 94.0891 8.82 93.6891 7.24L100.469 5.35Z" fill="#393939"/>
</g>
<path d="M0.5 58C0.5 45.8497 10.3497 36 22.5 36H138.5C150.65 36 160.5 45.8497 160.5 58C160.5 70.1503 150.65 80 138.5 80H22.5C10.3497 80 0.5 70.1503 0.5 58Z" fill="#24AD94"/>
<path d="M33.4089 44.6665C33.4089 44.6665 23.7119 55.4128 23.7119 61.7809C23.7119 67.0506 28.0594 71.3332 33.4089 71.3332C38.7584 71.3332 43.1059 67.0506 43.1059 61.7809C43.1059 55.4128 33.4089 44.6665 33.4089 44.6665ZM33.4089 68.1491C29.8372 68.1491 26.9442 65.2993 26.9442 61.7809C26.9442 58.963 30.1766 53.7571 33.4089 49.6655C36.6412 53.7411 39.8735 58.963 39.8735 61.7809C39.8735 65.2993 36.9806 68.1491 33.4089 68.1491Z" fill="#393939"/>
<path d="M33.4089 68.1491C29.8372 68.1491 26.9442 65.2993 26.9442 61.7809C26.9442 58.963 30.1766 53.7571 33.4089 49.6655C36.6412 53.7411 39.8735 58.963 39.8735 61.7809C39.8735 65.2993 36.9806 68.1491 33.4089 68.1491Z" fill="#91F3F6"/>
<rect x="33.1055" y="50" width="16" height="16" rx="8" fill="#24AD94"/>
<path d="M46.8325 55.5155L39.5779 62.5816L35.3779 58.1188L37.1496 56.3932L39.5779 58.7585L45.0608 53.418L46.8325 55.5155Z" fill="#393939"/>
<path d="M68.8024 44.6665C68.8024 44.6665 59.1055 55.4128 59.1055 61.7809C59.1055 67.0506 63.4529 71.3332 68.8024 71.3332C74.1519 71.3332 78.4994 67.0506 78.4994 61.7809C78.4994 55.4128 68.8024 44.6665 68.8024 44.6665ZM68.8024 68.1491C65.2307 68.1491 62.3378 65.2993 62.3378 61.7809C62.3378 58.963 65.5701 53.7571 68.8024 49.6655C72.0348 53.7411 75.2671 58.963 75.2671 61.7809C75.2671 65.2993 72.3742 68.1491 68.8024 68.1491Z" fill="#393939"/>
<path d="M68.8024 68.1491C65.2307 68.1491 62.3378 65.2993 62.3378 61.7809C62.3378 58.963 65.5701 53.7571 68.8024 49.6655C72.0348 53.7411 75.2671 58.963 75.2671 61.7809C75.2671 65.2993 72.3742 68.1491 68.8024 68.1491Z" fill="#91F3F6"/>
<path d="M98.197 44.6665C98.197 44.6665 88.5 55.4128 88.5 61.7809C88.5 67.0506 92.8475 71.3332 98.197 71.3332C103.546 71.3332 107.894 67.0506 107.894 61.7809C107.894 55.4128 98.197 44.6665 98.197 44.6665ZM98.197 68.1491C94.6253 68.1491 91.7323 65.2993 91.7323 61.7809C91.7323 58.963 94.9646 53.7571 98.197 49.6655C101.429 53.7411 104.662 58.963 104.662 61.7809C104.662 65.2993 101.769 68.1491 98.197 68.1491Z" fill="#393939"/>
<path d="M98.197 68.1491C94.6253 68.1491 91.7323 65.2993 91.7323 61.7809C91.7323 58.963 94.9646 53.7571 98.197 49.6655C101.429 53.7411 104.662 58.963 104.662 61.7809C104.662 65.2993 101.769 68.1491 98.197 68.1491Z" fill="#91F3F6"/>
<path d="M127.591 44.6665C127.591 44.6665 117.894 55.4128 117.894 61.7809C117.894 67.0506 122.241 71.3332 127.591 71.3332C132.94 71.3332 137.287 67.0506 137.287 61.7809C137.287 55.4128 127.591 44.6665 127.591 44.6665ZM127.591 68.1491C124.019 68.1491 121.126 65.2993 121.126 61.7809C121.126 58.963 124.358 53.7571 127.591 49.6655C130.823 53.7411 134.055 58.963 134.055 61.7809C134.055 65.2993 131.162 68.1491 127.591 68.1491Z" fill="#393939"/>
<path d="M127.591 68.1491C124.019 68.1491 121.126 65.2993 121.126 61.7809C121.126 58.963 124.358 53.7571 127.591 49.6655C130.823 53.7411 134.055 58.963 134.055 61.7809C134.055 65.2993 131.162 68.1491 127.591 68.1491Z" fill="#91F3F6"/>
<defs>
<filter id="filter0_d_1825_11079" x="53.8965" y="5.3501" width="52.1631" height="30.9497" filterUnits="userSpaceOnUse" color-interpolation-filters="sRGB">
<feFlood flood-opacity="0" result="BackgroundImageFix"/>
<feColorMatrix in="SourceAlpha" type="matrix" values="0 0 0 0 0 0 0 0 0 0 0 0 0 0 0 0 0 0 127 0" result="hardAlpha"/>
<feOffset dy="4"/>
<feGaussianBlur stdDeviation="2"/>
<feComposite in2="hardAlpha" operator="out"/>
<feColorMatrix type="matrix" values="0 0 0 0 0 0 0 0 0 0 0 0 0 0 0 0 0 0 0.25 0"/>
<feBlend mode="normal" in2="BackgroundImageFix" result="effect1_dropShadow_1825_11079"/>
<feBlend mode="normal" in="SourceGraphic" in2="effect1_dropShadow_1825_11079" result="shape"/>
</filter>
</defs>
</svg>
