<svg width="24" height="25" viewBox="0 0 24 25" fill="none" xmlns="http://www.w3.org/2000/svg">
<path d="M7.78401 20.288H15.1621V9.74777H13.0541C12.5622 9.74777 12.1582 9.87074 11.842 10.1167C11.5258 10.3626 11.1481 10.7227 10.7089 11.1971C10.3576 11.5835 9.94914 11.9832 9.48361 12.396C9.01809 12.8088 8.45155 13.1118 7.78401 13.3051V20.288ZM5.67597 22.396V13.2787C4.76249 13.0328 4.00711 12.5409 3.40983 11.8031C2.81255 11.0653 2.51392 10.2045 2.51392 9.22077C2.51392 8.28972 2.78181 7.46407 3.31761 6.74382C3.8534 6.02358 4.5429 5.52292 5.38612 5.24185C5.79016 4.39863 6.39183 3.71352 7.19112 3.18651C7.99042 2.6595 8.89073 2.396 9.89205 2.396C10.5069 2.396 11.0822 2.5014 11.618 2.7122C12.1538 2.92301 12.6413 3.20408 13.0805 3.55542C13.2561 3.52028 13.423 3.48954 13.5811 3.46319C13.7392 3.43684 13.9149 3.42366 14.1081 3.42366C15.2675 3.42366 16.2601 3.83649 17.0857 4.66214C17.9114 5.48778 18.3242 6.48032 18.3242 7.63974C18.3242 8.02621 18.2759 8.39512 18.1793 8.74646C18.0826 9.0978 17.9377 9.43157 17.7445 9.74777H19.3782C19.9579 9.74777 20.4542 9.95419 20.867 10.367C21.2798 10.7798 21.4862 11.2761 21.4862 11.8558V18.1799C21.4862 18.7596 21.2798 19.2559 20.867 19.6687C20.4542 20.0815 19.9579 20.288 19.3782 20.288H17.2702V22.396H5.67597ZM4.62195 9.22077C4.62195 9.80048 4.82837 10.2967 5.24119 10.7096C5.65401 11.1224 6.15028 11.3288 6.72999 11.3288C7.29213 11.3288 7.77083 11.1443 8.16609 10.7754C8.56135 10.4065 8.96978 9.99371 9.39139 9.53697C9.83056 9.06266 10.3268 8.62788 10.8802 8.23262C11.4335 7.83737 12.1582 7.63974 13.0541 7.63974H16.2162C16.2162 7.06003 16.0097 6.56376 15.5969 6.15094C15.1841 5.73811 14.6878 5.5317 14.1081 5.5317C13.6689 5.5317 13.3 5.58879 13.0014 5.70298L12.5534 5.87426L11.7366 5.18914C11.5433 5.03104 11.293 4.87733 10.9856 4.72801C10.6782 4.57869 10.3137 4.50403 9.89205 4.50403C9.3299 4.50403 8.81607 4.65335 8.35054 4.95199C7.88502 5.25063 7.52929 5.65467 7.28335 6.16411L6.91444 6.95463L6.07123 7.24448C5.63205 7.38502 5.28071 7.63535 5.01721 7.99547C4.75371 8.35559 4.62195 8.76402 4.62195 9.22077ZM17.2702 18.1799H19.3782V11.8558H17.2702V18.1799Z" fill="#F4B40C"/>
</svg>
