<svg width="19" height="21" viewBox="0 0 19 21" fill="none" xmlns="http://www.w3.org/2000/svg">
<path d="M8.19753 18.2167V11.3667L2.04938 7.89175V14.7417L8.19753 18.2167ZM10.2469 18.2167L16.3951 14.7417V7.89175L10.2469 11.3667V18.2167ZM8.19753 20.5167L1.02469 16.4917C0.700206 16.3084 0.448302 16.0667 0.268981 15.7667C0.0896605 15.4667 0 15.1334 0 14.7667V6.81675C0 6.45008 0.0896605 6.11675 0.268981 5.81675C0.448302 5.51675 0.700206 5.27508 1.02469 5.09175L8.19753 1.06675C8.52202 0.883415 8.86358 0.791748 9.22222 0.791748C9.58086 0.791748 9.92243 0.883415 10.2469 1.06675L17.4198 5.09175C17.7442 5.27508 17.9961 5.51675 18.1755 5.81675C18.3548 6.11675 18.4444 6.45008 18.4444 6.81675V14.7667C18.4444 15.1334 18.3548 15.4667 18.1755 15.7667C17.9961 16.0667 17.7442 16.3084 17.4198 16.4917L10.2469 20.5167C9.92243 20.7001 9.58086 20.7917 9.22222 20.7917C8.86358 20.7917 8.52202 20.7001 8.19753 20.5167ZM13.321 7.31675L15.2935 6.21675L9.22222 2.79175L7.22407 3.91675L13.321 7.31675ZM9.22222 9.64175L11.2204 8.51675L5.14907 5.09175L3.15093 6.21675L9.22222 9.64175Z" fill="#F4B40C"/>
</svg>
