<svg width="24" height="24" viewBox="0 0 24 24" fill="none" xmlns="http://www.w3.org/2000/svg">
<path d="M21.2508 10.3374L20.4542 9.70674C20.2551 9.54078 20.1887 9.30845 20.2219 9.07611L20.4874 8.11357C20.6534 7.51613 20.5206 6.8855 20.1555 6.35445C19.7572 5.82339 19.1598 5.49148 18.4959 5.45829L17.467 5.39191C17.2015 5.39191 16.936 5.22595 16.8696 4.99362L16.5045 4.09746C16.2721 3.53321 15.7743 3.06854 15.1768 2.86939C14.5462 2.67024 13.8824 2.73663 13.3181 3.06854L12.4552 3.59959C12.2228 3.73236 11.9241 3.73236 11.6586 3.59959L10.7956 3.06854C10.2314 2.73663 9.56755 2.63705 8.93692 2.86939C8.33948 3.06854 7.84162 3.50002 7.60928 4.09746L7.1778 5.02681C7.07823 5.25914 6.84589 5.4251 6.58036 5.4251L5.55144 5.49148C4.88762 5.52467 4.25699 5.85658 3.89189 6.38764C3.52679 6.8855 3.39402 7.54932 3.55998 8.14676L3.82551 9.1093C3.89189 9.34164 3.79232 9.57398 3.59317 9.73993L2.79658 10.3374C2.26553 10.7357 2 11.3331 2 11.9969C2 12.6275 2.29872 13.225 2.79658 13.6565L3.59317 14.2871C3.79232 14.4531 3.89189 14.6854 3.82551 14.9177L3.55998 15.8803C3.39402 16.4777 3.52679 17.1083 3.89189 17.6394C4.29018 18.1705 4.88762 18.5024 5.55144 18.5356L6.58036 18.6019C6.84589 18.6019 7.11142 18.7679 7.1778 19.0002L7.5429 19.8964C7.77524 20.4606 8.2731 20.9253 8.87054 21.1245C9.50117 21.3236 10.165 21.2572 10.7292 20.9253L11.5922 20.3942C11.8245 20.2615 12.1233 20.2615 12.3888 20.3942L13.2518 20.9253C13.6169 21.1245 14.0151 21.2572 14.4134 21.2572C14.6458 21.2572 14.8781 21.224 15.1105 21.1576C15.7079 20.9585 16.2058 20.527 16.4381 19.9296L16.8032 19.0334C16.9028 18.8011 17.1351 18.6351 17.4006 18.6351L18.4296 18.5687C19.0934 18.5356 19.724 18.2036 20.0891 17.6726C20.4542 17.1747 20.587 16.5109 20.421 15.9135L20.1555 14.9509C20.0891 14.7186 20.1887 14.4862 20.3878 14.3203L21.1844 13.6897C21.7155 13.2914 21.981 12.6939 21.981 12.0301C22.0806 11.3663 21.7818 10.7689 21.2508 10.3374ZM20.3214 12.4616L19.5249 13.0922C18.861 13.6233 18.5623 14.4862 18.7947 15.2828L19.0602 16.2454C19.1266 16.4777 19.027 16.6437 18.9606 16.7432C18.8278 16.9092 18.6287 17.0088 18.4296 17.042L17.4006 17.1083C16.5709 17.1415 15.8075 17.6726 15.5087 18.436L15.1105 19.2989C15.0109 19.5313 14.8117 19.6309 14.679 19.664C14.4798 19.7304 14.2475 19.6972 14.0483 19.5977L13.1854 19.0666C12.8203 18.8675 12.422 18.7347 12.0237 18.7347C11.6254 18.7347 11.2271 18.8343 10.862 19.0666L9.99903 19.5977C9.79989 19.6972 9.56755 19.7304 9.36841 19.664C9.26883 19.6309 9.0365 19.5313 8.93692 19.2989L8.57182 18.4028C8.2731 17.6394 7.50971 17.1083 6.67993 17.0751L5.65101 17.0088C5.41867 17.0088 5.21953 16.876 5.11996 16.71C5.05357 16.6105 4.954 16.4445 5.02038 16.2122L5.28591 15.2496C5.51825 14.4531 5.21953 13.5901 4.55571 13.059L3.72593 12.4616C3.55998 12.3288 3.4936 12.1629 3.4936 11.9969C3.4936 11.7978 3.59317 11.6318 3.72593 11.5322L4.52252 10.9016C5.18634 10.3706 5.48506 9.50759 5.25272 8.71101L4.98719 7.74847C4.92081 7.51613 5.02038 7.35018 5.08676 7.2506C5.21953 7.08465 5.41867 6.98508 5.61782 6.95189L6.64674 6.8855C7.47652 6.85231 8.23991 6.32126 8.53863 5.55786L8.90373 4.66171C9.0365 4.46256 9.23564 4.36299 9.36841 4.32979C9.56755 4.26341 9.79989 4.2966 9.99903 4.39618L10.862 4.92723C11.559 5.35872 12.4884 5.35872 13.1854 4.92723L14.0483 4.39618C14.2475 4.2966 14.4798 4.26341 14.679 4.32979C14.7785 4.36299 15.0109 4.46256 15.1105 4.6949L15.4756 5.59105C15.7743 6.35445 16.5377 6.8855 17.3674 6.91869L18.3964 6.98508C18.6287 6.98508 18.8278 7.11784 18.9274 7.2838C18.9938 7.38337 19.0934 7.54932 19.027 7.78166L18.7615 8.7442C18.5291 9.54078 18.8278 10.4038 19.4917 10.9348L20.2882 11.5654C20.4542 11.6982 20.5206 11.8642 20.5206 12.0301C20.587 12.1961 20.4874 12.362 20.3214 12.4616Z" fill="#F4B40C"/>
<path d="M15.0774 8.94344C14.7786 8.64472 14.314 8.64472 14.0153 8.94344L8.97022 13.9885C8.6715 14.2872 8.6715 14.7519 8.97022 15.0506C9.10298 15.1834 9.30213 15.2829 9.50128 15.2829C9.70042 15.2829 9.89957 15.2165 10.0323 15.0506L15.0774 10.0056C15.3761 9.70684 15.3761 9.20897 15.0774 8.94344ZM11.0944 11.0345C11.891 10.2379 11.891 8.97663 11.0944 8.18005C10.7293 7.81495 10.1983 7.58261 9.66723 7.58261C9.13617 7.58261 8.63831 7.78176 8.24002 8.18005C7.44343 8.97663 7.44343 10.2379 8.24002 11.0345C8.60512 11.3996 9.13617 11.6319 9.66723 11.6319C10.1983 11.6319 10.6962 11.4328 11.0944 11.0345ZM9.30213 9.27535C9.4017 9.17578 9.53447 9.1094 9.66723 9.1094C9.79999 9.1094 9.93276 9.17578 10.0323 9.27535C10.2315 9.4745 10.2315 9.80641 10.0323 10.0056C9.83319 10.2047 9.50127 10.2047 9.30213 10.0056C9.10298 9.80641 9.10298 9.4745 9.30213 9.27535ZM12.8536 12.8268C12.4885 13.1919 12.2561 13.7229 12.2561 14.254C12.2561 14.7851 12.4553 15.2829 12.8536 15.6812C13.2519 16.0795 13.7497 16.2787 14.2808 16.2787C14.8118 16.2787 15.3097 16.0795 15.708 15.6812C16.0731 15.3161 16.3054 14.7851 16.3054 14.254C16.3054 13.7229 16.1063 13.2251 15.708 12.8268C14.9114 12.0302 13.6502 12.0302 12.8536 12.8268ZM14.6459 14.6191C14.4467 14.8183 14.1148 14.8183 13.9157 14.6191C13.8161 14.5195 13.7497 14.3868 13.7497 14.254C13.7497 14.1212 13.8161 13.9885 13.9157 13.8889C14.0153 13.7893 14.148 13.7229 14.2808 13.7229C14.4135 13.7229 14.5463 13.7893 14.6459 13.8889C14.7455 13.9885 14.8118 14.1212 14.8118 14.254C14.8118 14.3868 14.7455 14.5195 14.6459 14.6191Z" fill="#F4B40C"/>
</svg>
