<svg width="9" height="21" viewBox="0 0 9 21" fill="none" xmlns="http://www.w3.org/2000/svg">
<path d="M6.19847 0.128062L2.80352 0.128062C2.58183 0.129 2.36828 0.21171 2.20379 0.360344C2.0393 0.508979 1.93544 0.713084 1.91211 0.93355C1.88878 1.15402 1.94762 1.37534 2.07737 1.5551C2.20711 1.73487 2.39862 1.86044 2.61521 1.90776L1.94259 6.63947L0.3581 9.0154C0.259674 9.16351 0.20692 9.33726 0.206389 9.51509L0.205858 18.3552C0.205844 18.6311 0.260168 18.9042 0.365729 19.1591C0.47129 19.414 0.626021 19.6456 0.821085 19.8406C1.01615 20.0357 1.24773 20.1904 1.50259 20.296C1.75746 20.4015 2.03062 20.4559 2.30648 20.4558L6.69551 20.4558C6.97138 20.4559 7.24454 20.4015 7.4994 20.296C7.75427 20.1904 7.98585 20.0357 8.18091 19.8406C8.37597 19.6456 8.5307 19.414 8.63626 19.1591C8.74183 18.9042 8.79615 18.6311 8.79614 18.3552L8.79667 9.51615C8.79614 9.33832 8.74338 9.16457 8.64496 9.01646L7.05941 6.63947L6.38201 1.90617C6.5986 1.85885 6.79011 1.73328 6.91986 1.55351C7.0496 1.37375 7.10844 1.15242 7.08511 0.931958C7.06179 0.711492 6.95793 0.507388 6.79344 0.358753C6.62895 0.210118 6.41539 0.127408 6.1937 0.12647L6.19847 0.128062ZM6.99416 15.4043L2.00783 15.4043L2.00783 12.1154L6.99416 12.1154L6.99416 15.4043ZM6.9077 18.5674C6.87985 18.5953 6.84677 18.6174 6.81037 18.6325C6.77396 18.6476 6.73493 18.6554 6.69551 18.6555L2.30648 18.6555C2.26705 18.6555 2.228 18.6477 2.19156 18.6326C2.15512 18.6176 2.12202 18.5955 2.09413 18.5676C2.06625 18.5397 2.04413 18.5066 2.02905 18.4701C2.01397 18.4337 2.00622 18.3947 2.00624 18.3552L2.00783 17.2078L6.99416 17.2078L6.99575 18.3552C6.99573 18.3946 6.98794 18.4337 6.97283 18.4701C6.95773 18.5065 6.93559 18.5396 6.9077 18.5674ZM5.30571 7.09885C5.32467 7.23204 5.37325 7.35928 5.44787 7.47123L6.99841 9.78563L6.99416 10.3118H2.00783V9.78138L3.55413 7.46274C3.62874 7.3508 3.67732 7.22355 3.69629 7.09036L4.43416 1.92208L4.57102 1.92208L5.30571 7.09885Z" fill="#F4B40C"/>
</svg>
