<svg width="24" height="24" viewBox="0 0 24 24" fill="none" xmlns="http://www.w3.org/2000/svg">
<path d="M9.12368 15.7611L11.6117 14.1903L14.0996 15.7611L13.4404 12.8186L15.6519 10.8274L12.7387 10.5841L11.6117 7.79646L10.4846 10.5841L7.57135 10.8274L9.78289 12.8186L9.12368 15.7611ZM11.6117 22L8.76218 19.0796H4.80694V14.9646L2 12L4.80694 9.0354V4.92035H8.76218L11.6117 2L14.4611 4.92035H18.4164V9.0354L21.2233 12L18.4164 14.9646V19.0796H14.4611L11.6117 22ZM11.6117 19.5221L13.7381 17.3097H16.7152V14.2124L18.8417 12L16.7152 9.78761V6.69027H13.7381L11.6117 4.47788L9.48518 6.69027H6.50812V9.78761L4.38165 12L6.50812 14.2124V17.3097H9.48518L11.6117 19.5221Z" fill="#F4B40C"/>
</svg>
