<svg width="24" height="24" viewBox="0 0 24 24" fill="none" xmlns="http://www.w3.org/2000/svg">
<g clip-path="url(#clip0_1_2)">
<rect width="24" height="24" fill="white"/>
<path d="M10.1975 19.425V12.575L4.04938 9.1V15.95L10.1975 19.425ZM12.2469 19.425L18.3951 15.95V9.1L12.2469 12.575V19.425ZM10.1975 21.725L3.02469 17.7C2.70021 17.5167 2.4483 17.275 2.26898 16.975C2.08966 16.675 2 16.3417 2 15.975V8.025C2 7.65833 2.08966 7.325 2.26898 7.025C2.4483 6.725 2.70021 6.48333 3.02469 6.3L10.1975 2.275C10.522 2.09167 10.8636 2 11.2222 2C11.5809 2 11.9224 2.09167 12.2469 2.275L19.4198 6.3C19.7442 6.48333 19.9961 6.725 20.1755 7.025C20.3548 7.325 20.4444 7.65833 20.4444 8.025V15.975C20.4444 16.3417 20.3548 16.675 20.1755 16.975C19.9961 17.275 19.7442 17.5167 19.4198 17.7L12.2469 21.725C11.9224 21.9083 11.5809 22 11.2222 22C10.8636 22 10.522 21.9083 10.1975 21.725ZM15.321 8.525L17.2935 7.425L11.2222 4L9.22407 5.125L15.321 8.525ZM11.2222 10.85L13.2204 9.725L7.14907 6.3L5.15093 7.425L11.2222 10.85Z" fill="#F4B40C"/>
</g>
<defs>
<clipPath id="clip0_1_2">
<rect width="24" height="24" fill="white"/>
</clipPath>
</defs>
</svg>
