<svg width="24" height="24" viewBox="0 0 24 24" fill="none" xmlns="http://www.w3.org/2000/svg">
<g clip-path="url(#clip0_1_2)">
<rect width="24" height="24" fill="white"/>
<path d="M13.6983 1.33625L10.3033 1.33625C10.0816 1.33719 9.86809 1.4199 9.7036 1.56854C9.53911 1.71717 9.43525 1.92128 9.41192 2.14174C9.3886 2.36221 9.44744 2.58353 9.57718 2.7633C9.70692 2.94306 9.89844 3.06863 10.115 3.11595L9.4424 7.84766L7.85792 10.2236C7.75949 10.3717 7.70674 10.5455 7.70621 10.7233L7.70567 19.5634C7.70566 19.8393 7.75998 20.1124 7.86555 20.3673C7.97111 20.6222 8.12584 20.8537 8.3209 21.0488C8.51597 21.2439 8.74754 21.3986 9.00241 21.5042C9.25727 21.6097 9.53044 21.664 9.8063 21.664L14.1953 21.664C14.4712 21.664 14.7444 21.6097 14.9992 21.5042C15.2541 21.3986 15.4857 21.2439 15.6807 21.0488C15.8758 20.8537 16.0305 20.6222 16.1361 20.3673C16.2416 20.1124 16.296 19.8393 16.296 19.5634L16.2965 10.7243C16.296 10.5465 16.2432 10.3728 16.1448 10.2247L14.5592 7.84766L13.8818 3.11436C14.0984 3.06704 14.2899 2.94147 14.4197 2.7617C14.5494 2.58194 14.6083 2.36062 14.5849 2.14015C14.5616 1.91968 14.4577 1.71558 14.2933 1.56694C14.1288 1.41831 13.9152 1.3356 13.6935 1.33466L13.6983 1.33625ZM14.494 16.6125L9.50765 16.6125L9.50765 13.3236L14.494 13.3236L14.494 16.6125ZM14.4075 19.7756C14.3797 19.8035 14.3466 19.8256 14.3102 19.8407C14.2738 19.8558 14.2347 19.8636 14.1953 19.8637L9.8063 19.8637C9.76686 19.8637 9.72781 19.8559 9.69138 19.8408C9.65494 19.8258 9.62183 19.8036 9.59395 19.7758C9.56606 19.7479 9.54395 19.7148 9.52887 19.6783C9.51379 19.6419 9.50604 19.6028 9.50606 19.5634L9.50765 18.416L14.494 18.416L14.4956 19.5634C14.4955 19.6028 14.4878 19.6419 14.4727 19.6783C14.4575 19.7147 14.4354 19.7477 14.4075 19.7756ZM12.8055 8.30704C12.8245 8.44023 12.8731 8.56747 12.9477 8.67942L14.4982 10.9938L14.494 11.52L9.50765 11.52L9.50765 10.9896L11.0539 8.67093C11.1286 8.55899 11.1771 8.43174 11.1961 8.29855L11.934 3.13027L12.0708 3.13027L12.8055 8.30704Z" fill="#F4B40C"/>
</g>
<defs>
<clipPath id="clip0_1_2">
<rect width="24" height="24" fill="white"/>
</clipPath>
</defs>
</svg>
