<svg width="25" height="25" viewBox="0 0 25 25" fill="none" xmlns="http://www.w3.org/2000/svg">
<path d="M12.5 7.29199C13.1671 7.29199 13.8068 7.55538 14.2785 8.02423C14.7501 8.49307 15.0151 9.12895 15.0151 9.79199C15.0151 10.1203 14.9501 10.4454 14.8237 10.7487C14.6973 11.052 14.512 11.3276 14.2785 11.5598C14.0449 11.7919 13.7676 11.9761 13.4625 12.1017C13.1574 12.2273 12.8303 12.292 12.5 12.292C11.833 12.292 11.1933 12.0286 10.7216 11.5598C10.2499 11.0909 9.98493 10.455 9.98493 9.79199C9.98493 9.12895 10.2499 8.49307 10.7216 8.02423C11.1933 7.55538 11.833 7.29199 12.5 7.29199ZM12.5 2.79199C14.3677 2.79199 16.159 3.52949 17.4796 4.84224C18.8003 6.155 19.5423 7.93548 19.5423 9.79199C19.5423 15.042 12.5 22.792 12.5 22.792C12.5 22.792 5.45776 15.042 5.45776 9.79199C5.45776 7.93548 6.19971 6.155 7.52039 4.84224C8.84107 3.52949 10.6323 2.79199 12.5 2.79199ZM12.5 4.79199C11.1659 4.79199 9.88648 5.31878 8.94314 6.25646C7.9998 7.19414 7.46984 8.46591 7.46984 9.79199C7.46984 10.792 7.46984 12.792 12.5 19.502C17.5302 12.792 17.5302 10.792 17.5302 9.79199C17.5302 8.46591 17.0002 7.19414 16.0569 6.25646C15.1136 5.31878 13.8341 4.79199 12.5 4.79199Z" fill="#F4B40C"/>
</svg>
