<svg width="37" height="36" viewBox="0 0 37 36" fill="none" xmlns="http://www.w3.org/2000/svg">
<circle cx="18.5" cy="18" r="18" fill="#F4B40C"/>
<path d="M12.5 28V18.85C11.6 18.6167 10.875 18.1417 10.325 17.425C9.775 16.7083 9.5 15.9 9.5 15V8H11.5V14H12.5V8H14.5V14H15.5V8H17.5V15C17.5 15.9 17.225 16.7083 16.675 17.425C16.125 18.1417 15.4 18.6167 14.5 18.85V28H12.5ZM22.5 28V18.475C21.6 18.175 20.875 17.5458 20.325 16.5875C19.775 15.6292 19.5 14.5417 19.5 13.325C19.5 11.8417 19.8917 10.5833 20.675 9.55C21.4583 8.51667 22.4 8 23.5 8C24.6 8 25.5417 8.52083 26.325 9.5625C27.1083 10.6042 27.5 11.8667 27.5 13.35C27.5 14.5667 27.225 15.65 26.675 16.6C26.125 17.55 25.4 18.175 24.5 18.475V28H22.5Z" fill="#393939"/>
</svg>
