<svg width="133" height="88" viewBox="0 0 133 88" fill="none" xmlns="http://www.w3.org/2000/svg">
<g clip-path="url(#clip0_2696_67098)">
<path d="M31.1102 8.4403C29.9902 8.4403 29.0702 9.3503 29.0702 10.4803C29.0702 11.6103 29.9802 12.5203 31.1102 12.5203C32.2402 12.5203 33.1502 11.6103 33.1502 10.4803C33.1502 9.3503 32.2402 8.4403 31.1102 8.4403ZM21.3402 8.4403C20.2202 8.4403 19.3002 9.3503 19.3002 10.4803C19.3002 11.6103 20.2102 12.5203 21.3402 12.5203C22.4702 12.5203 23.3802 11.6103 23.3802 10.4803C23.3802 9.3503 22.4702 8.4403 21.3402 8.4403ZM11.4102 8.4403C10.2902 8.4403 9.3702 9.3503 9.3702 10.4803C9.3702 11.6103 10.2802 12.5203 11.4102 12.5203C12.5402 12.5203 13.4502 11.6103 13.4502 10.4803C13.4502 9.3503 12.5402 8.4403 11.4102 8.4403ZM110.76 82.7303C110.76 84.5803 109.26 86.0803 107.41 86.0803H6.3602C4.5102 86.0803 3.0102 84.5803 3.0102 82.7303V20.9403H110.77V50.5103H112.65V5.3603C112.71 4.0403 112.21 2.7503 111.24 1.7403C110.2 0.650304 108.74 0.0303043 107.24 0.0303043H6.3602C3.3702 0.0203043 0.950195 2.4403 0.950195 5.4203V82.5603C0.950195 85.5403 3.3702 87.9703 6.3602 87.9703H107.24C110.22 87.9703 112.65 85.5503 112.65 82.5603V56.5103H110.77V82.7303H110.76ZM2.8302 5.5903C2.8302 3.7403 4.3302 2.2403 6.1802 2.2403H107.06C108.91 2.2403 110.41 3.7403 110.41 5.5903V18.8803H2.8302V5.5903ZM132.05 53.5103L125.89 47.7903L124.93 48.8203L128.91 52.5203H88.4902C87.9402 52.5203 87.4902 52.9703 87.4902 53.5203C87.4902 54.0703 87.9402 54.5203 88.4902 54.5203H128.91L124.93 58.2203L125.89 59.2503L132.05 53.5303V53.5103Z" fill="#393939"/>
</g>
<defs>
<clipPath id="clip0_2696_67098">
<rect width="131.1" height="87.94" fill="white" transform="translate(0.950195 0.0302734)"/>
</clipPath>
</defs>
</svg>
