<svg width="161" height="80" viewBox="0 0 161 80" fill="none" xmlns="http://www.w3.org/2000/svg">
<g filter="url(#filter0_d_1825_11107)">
<path d="M62.8184 13.54C62.0384 13 61.2284 12.54 60.3884 12.16C59.5684 11.78 58.6484 11.57 57.6284 11.53C57.3884 11.53 57.1184 11.54 56.8184 11.56C56.5184 11.58 56.2284 11.63 55.9484 11.71C55.6884 11.79 55.4684 11.92 55.2884 12.1C55.1084 12.26 55.0184 12.48 55.0184 12.76C55.0384 13 55.1084 13.19 55.2284 13.33C55.3484 13.47 55.4984 13.59 55.6784 13.69C55.8584 13.79 56.0584 13.86 56.2784 13.9C56.4984 13.94 56.7084 13.96 56.9084 13.96C57.1284 13.96 57.3284 13.95 57.5084 13.93C57.7084 13.91 57.9184 13.9 58.1384 13.9C59.0984 13.9 60.0584 14.03 61.0184 14.29C61.9984 14.55 62.8784 14.96 63.6584 15.52C64.4384 16.06 65.0684 16.75 65.5484 17.59C66.0484 18.43 66.2984 19.43 66.2984 20.59C66.2584 21.75 65.9784 22.81 65.4584 23.77C64.9384 24.71 64.2584 25.51 63.4184 26.17C62.5984 26.83 61.6784 27.34 60.6584 27.7C59.6384 28.06 58.6084 28.24 57.5684 28.24C56.7484 28.24 55.9084 28.16 55.0484 28C54.1884 27.84 53.3484 27.61 52.5284 27.31C51.7284 26.99 50.9584 26.59 50.2184 26.11C49.4784 25.63 48.8284 25.07 48.2684 24.43L52.2884 20.11C52.9284 20.81 53.6784 21.36 54.5384 21.76C55.4184 22.16 56.3184 22.36 57.2384 22.36C57.5184 22.36 57.8384 22.34 58.1984 22.3C58.5784 22.24 58.9284 22.15 59.2484 22.03C59.5884 21.91 59.8684 21.76 60.0884 21.58C60.3084 21.38 60.4184 21.15 60.4184 20.89C60.4184 20.65 60.3484 20.46 60.2084 20.32C60.0884 20.16 59.9184 20.05 59.6984 19.99C59.4984 19.91 59.2584 19.86 58.9784 19.84C58.7184 19.8 58.4584 19.78 58.1984 19.78C57.9784 19.78 57.7584 19.79 57.5384 19.81C57.3184 19.81 57.1284 19.81 56.9684 19.81C56.0084 19.79 55.0584 19.6 54.1184 19.24C53.1784 18.88 52.3384 18.39 51.5984 17.77C50.8584 17.13 50.2584 16.37 49.7984 15.49C49.3384 14.61 49.1084 13.64 49.1084 12.58C49.1084 11.4 49.3784 10.37 49.9184 9.49C50.4584 8.61 51.1484 7.89 51.9884 7.33C52.8284 6.75 53.7584 6.32 54.7784 6.04C55.7984 5.76 56.7984 5.62 57.7784 5.62C59.3384 5.66 60.8384 5.97 62.2784 6.55C63.7384 7.13 65.0384 7.97 66.1784 9.07L62.8184 13.54ZM85.9875 27.85V15.7L82.5075 28.06H77.3475L73.7775 16.66V27.76H67.4775V5.65L75.7875 6.22L79.8375 17.59L82.7175 6.19L90.7875 6.28L92.4075 27.85H85.9875ZM110.659 13.87V14.23C110.659 14.95 110.549 15.64 110.329 16.3C110.109 16.94 109.809 17.56 109.429 18.16C109.069 18.74 108.629 19.27 108.109 19.75C107.589 20.23 107.049 20.62 106.489 20.92C106.789 21.72 107.279 22.41 107.959 22.99C108.659 23.55 109.449 23.83 110.329 23.83H110.569V30.04C110.469 30.06 110.359 30.07 110.239 30.07C110.119 30.07 110.009 30.07 109.909 30.07C108.789 30.07 107.709 29.86 106.669 29.44C105.629 29.02 104.679 28.45 103.819 27.73C102.959 27.01 102.219 26.17 101.599 25.21C100.979 24.25 100.549 23.21 100.309 22.09H99.9795V27.79H93.5895L93.9795 6.52C94.5595 6.28 95.1595 6.08 95.7795 5.92C96.3995 5.76 96.9995 5.64 97.5795 5.56C98.1595 5.48 98.6995 5.43 99.1995 5.41C99.6995 5.37 100.099 5.35 100.399 5.35C100.999 5.37 101.659 5.43 102.379 5.53C103.099 5.63 103.829 5.82 104.569 6.1C105.329 6.38 106.049 6.73 106.729 7.15C107.429 7.55 108.059 8.07 108.619 8.71C109.199 9.33 109.669 10.07 110.029 10.93C110.389 11.77 110.599 12.75 110.659 13.87ZM100.069 16C100.389 16.14 100.779 16.21 101.239 16.21C101.639 16.21 102.029 16.16 102.409 16.06C102.789 15.96 103.119 15.81 103.399 15.61C103.699 15.41 103.929 15.15 104.089 14.83C104.269 14.49 104.359 14.11 104.359 13.69C104.319 12.83 104.019 12.18 103.459 11.74C102.919 11.28 102.269 11.05 101.509 11.05C101.309 11.05 101.099 11.07 100.879 11.11C100.679 11.15 100.489 11.2 100.309 11.26L100.069 16Z" fill="#393939"/>
</g>
<path d="M0.5 58C0.5 45.8497 10.3497 36 22.5 36H138.5C150.65 36 160.5 45.8497 160.5 58C160.5 70.1503 150.65 80 138.5 80H22.5C10.3497 80 0.5 70.1503 0.5 58Z" fill="#24AD94"/>
<path d="M27.4089 44.6665C27.4089 44.6665 17.7119 55.4128 17.7119 61.7809C17.7119 67.0506 22.0594 71.3332 27.4089 71.3332C32.7584 71.3332 37.1059 67.0506 37.1059 61.7809C37.1059 55.4128 27.4089 44.6665 27.4089 44.6665ZM27.4089 68.1491C23.8372 68.1491 20.9442 65.2993 20.9442 61.7809C20.9442 58.963 24.1766 53.7571 27.4089 49.6655C30.6412 53.7411 33.8735 58.963 33.8735 61.7809C33.8735 65.2993 30.9806 68.1491 27.4089 68.1491Z" fill="#393939"/>
<path d="M27.4089 68.1491C23.8372 68.1491 20.9442 65.2993 20.9442 61.7809C20.9442 58.963 24.1766 53.7571 27.4089 49.6655C30.6412 53.7411 33.8735 58.963 33.8735 61.7809C33.8735 65.2993 30.9806 68.1491 27.4089 68.1491Z" fill="#F4B40C"/>
<rect x="27.1055" y="50" width="16" height="16" rx="8" fill="#24AD94"/>
<path d="M40.8325 55.5155L33.5779 62.5816L29.3779 58.1188L31.1496 56.3932L33.5779 58.7585L39.0608 53.418L40.8325 55.5155Z" fill="#393939"/>
<path d="M62.8024 44.6665C62.8024 44.6665 53.1055 55.4128 53.1055 61.7809C53.1055 67.0506 57.4529 71.3332 62.8024 71.3332C68.1519 71.3332 72.4994 67.0506 72.4994 61.7809C72.4994 55.4128 62.8024 44.6665 62.8024 44.6665ZM62.8024 68.1491C59.2307 68.1491 56.3378 65.2993 56.3378 61.7809C56.3378 58.963 59.5701 53.7571 62.8024 49.6655C66.0348 53.7411 69.2671 58.963 69.2671 61.7809C69.2671 65.2993 66.3742 68.1491 62.8024 68.1491Z" fill="#393939"/>
<path d="M62.8024 68.1491C59.2307 68.1491 56.3378 65.2993 56.3378 61.7809C56.3378 58.963 59.5701 53.7571 62.8024 49.6655C66.0348 53.7411 69.2671 58.963 69.2671 61.7809C69.2671 65.2993 66.3742 68.1491 62.8024 68.1491Z" fill="#B87700"/>
<rect x="62.5" y="50" width="16" height="16" rx="8" fill="#24AD94"/>
<path d="M76.227 55.5155L68.9725 62.5816L64.7725 58.1188L66.5441 56.3932L68.9725 58.7585L74.4554 53.418L76.227 55.5155Z" fill="#393939"/>
<path d="M98.197 44.6665C98.197 44.6665 88.5 55.4128 88.5 61.7809C88.5 67.0506 92.8475 71.3332 98.197 71.3332C103.546 71.3332 107.894 67.0506 107.894 61.7809C107.894 55.4128 98.197 44.6665 98.197 44.6665ZM98.197 68.1491C94.6253 68.1491 91.7323 65.2993 91.7323 61.7809C91.7323 58.963 94.9646 53.7571 98.197 49.6655C101.429 53.7411 104.662 58.963 104.662 61.7809C104.662 65.2993 101.769 68.1491 98.197 68.1491Z" fill="#393939"/>
<path d="M98.197 68.1491C94.6253 68.1491 91.7323 65.2993 91.7323 61.7809C91.7323 58.963 94.9646 53.7571 98.197 49.6655C101.429 53.7411 104.662 58.963 104.662 61.7809C104.662 65.2993 101.769 68.1491 98.197 68.1491Z" fill="#933C02"/>
<rect x="97.8945" y="50" width="16" height="16" rx="8" fill="#24AD94"/>
<path d="M111.622 55.5155L104.367 62.5816L100.167 58.1188L101.939 56.3932L104.367 58.7585L109.85 53.418L111.622 55.5155Z" fill="#393939"/>
<path d="M133.591 44.6665C133.591 44.6665 123.894 55.4128 123.894 61.7809C123.894 67.0506 128.241 71.3332 133.591 71.3332C138.94 71.3332 143.287 67.0506 143.287 61.7809C143.287 55.4128 133.591 44.6665 133.591 44.6665ZM133.591 68.1491C130.019 68.1491 127.126 65.2993 127.126 61.7809C127.126 58.963 130.358 53.7571 133.591 49.6655C136.823 53.7411 140.055 58.963 140.055 61.7809C140.055 65.2993 137.162 68.1491 133.591 68.1491Z" fill="#393939"/>
<path d="M133.591 68.1491C130.019 68.1491 127.126 65.2993 127.126 61.7809C127.126 58.963 130.358 53.7571 133.591 49.6655C136.823 53.7411 140.055 58.963 140.055 61.7809C140.055 65.2993 137.162 68.1491 133.591 68.1491Z" fill="#470200"/>
<defs>
<filter id="filter0_d_1825_11107" x="44.2686" y="5.3501" width="70.3906" height="32.7197" filterUnits="userSpaceOnUse" color-interpolation-filters="sRGB">
<feFlood flood-opacity="0" result="BackgroundImageFix"/>
<feColorMatrix in="SourceAlpha" type="matrix" values="0 0 0 0 0 0 0 0 0 0 0 0 0 0 0 0 0 0 127 0" result="hardAlpha"/>
<feOffset dy="4"/>
<feGaussianBlur stdDeviation="2"/>
<feComposite in2="hardAlpha" operator="out"/>
<feColorMatrix type="matrix" values="0 0 0 0 0 0 0 0 0 0 0 0 0 0 0 0 0 0 0.25 0"/>
<feBlend mode="normal" in2="BackgroundImageFix" result="effect1_dropShadow_1825_11107"/>
<feBlend mode="normal" in="SourceGraphic" in2="effect1_dropShadow_1825_11107" result="shape"/>
</filter>
</defs>
</svg>
