<svg width="15" height="15" viewBox="0 0 15 15" fill="none" xmlns="http://www.w3.org/2000/svg">
<path d="M6.91934 1.1878C7.09772 0.799322 7.64974 0.799322 7.82811 1.1878L9.16955 4.10922C9.3875 4.58388 9.83667 4.91099 10.3553 4.97277L13.5434 5.35248C13.9664 5.40286 14.1367 5.92535 13.8246 6.21529L11.4614 8.41058C11.0804 8.7645 10.9099 9.29049 11.0108 9.80061L11.6372 12.9672C11.72 13.386 11.2738 13.7093 10.9016 13.5001L8.10891 11.9298C7.6524 11.6731 7.09505 11.6731 6.63854 11.9298L3.84581 13.5001C3.47369 13.7093 3.02741 13.386 3.11025 12.9672L3.73661 9.80061C3.83752 9.29049 3.66702 8.7645 3.28603 8.41058L0.922886 6.2153C0.610769 5.92535 0.781035 5.40286 1.20405 5.35248L4.39214 4.97277C4.91078 4.91099 5.35995 4.58388 5.5779 4.10922L6.91934 1.1878Z" fill="#675594" stroke="#675594"/>
</svg>
