<svg width="15" height="15" viewBox="0 0 15 15" fill="none" xmlns="http://www.w3.org/2000/svg">
<path d="M7.39897 1.29212C7.48816 1.09788 7.76417 1.09788 7.85336 1.29212L9.1948 4.21354C9.44908 4.76731 9.97311 5.14894 10.5782 5.22101L13.7663 5.60072C13.9778 5.62592 14.0629 5.88716 13.9069 6.03213L11.5437 8.22741C11.0992 8.64032 10.9003 9.25398 11.018 9.84913L11.6444 13.0158C11.6858 13.2252 11.4627 13.3868 11.2766 13.2822L8.48389 11.7118C7.95129 11.4124 7.30105 11.4124 6.76845 11.7118L3.97572 13.2822C3.78966 13.3868 3.56652 13.2252 3.60794 13.0158L4.2343 9.84912C4.35203 9.25398 4.15311 8.64032 3.70863 8.22741L1.34548 6.03213C1.18942 5.88716 1.27455 5.62592 1.48606 5.60072L4.67414 5.22101C5.27923 5.14894 5.80326 4.76731 6.05753 4.21354L7.39897 1.29212Z" stroke="#675594" stroke-width="1.5"/>
</svg>
