<svg width="37" height="36" viewBox="0 0 37 36" fill="none" xmlns="http://www.w3.org/2000/svg">
<circle cx="18.5" cy="18" r="18" fill="#F4B40C"/>
<path d="M19.0009 19V11C19.0009 9.34 17.6609 8 16.0009 8C14.3409 8 13.0009 9.34 13.0009 11V19C10.7909 20.66 10.3409 23.79 12.0009 26C13.6609 28.21 16.7909 28.66 19.0009 27C21.2109 25.34 21.6609 22.21 20.0009 20C19.7209 19.62 19.3809 19.28 19.0009 19ZM16.0009 10C16.5509 10 17.0009 10.45 17.0009 11V19H15L15.0009 11C15.0009 10.45 15.4509 10 16.0009 10ZM25.2509 21.16L22.5009 18.16L23.6609 17L25.2509 18.59L28.8409 15L30.0009 16.41L25.2509 21.16Z" fill="#393939"/>
</svg>
