<svg width="25" height="24" viewBox="0 0 25 24" fill="none" xmlns="http://www.w3.org/2000/svg">
<path d="M2.5 19H4.5C4.5 16.7909 6.29086 15 8.5 15C10.7091 15 12.5 16.7909 12.5 19H14.5C14.5 15.6863 11.8137 13 8.5 13C5.18629 13 2.5 15.6863 2.5 19Z" fill="#F4B40C"/>
<path d="M4.5 8C4.5 5.79086 6.29086 4 8.5 4C10.7091 4 12.5 5.79086 12.5 8C12.4972 10.208 10.708 11.9972 8.5 12C6.29086 12 4.5 10.2091 4.5 8ZM6.50223 7.97134C6.48658 9.06383 7.35057 9.9667 8.44269 9.99912C9.53481 10.0315 10.4508 9.1815 10.5 8.09V8C10.5 6.89543 9.60457 6 8.5 6C7.4074 6.00111 6.51789 6.87885 6.50223 7.97134Z" fill="#F4B40C"/>
<path d="M18.839 14.9994C18.631 14.8144 18.396 14.6214 18.147 14.4174L18.1 14.3794L18.0944 14.3749C16.9384 13.4317 15.5 12.2581 15.5 10.7994C15.5002 10.3154 15.6953 9.85178 16.0413 9.51329C16.3873 9.1748 16.8551 8.98994 17.339 9.00042C17.9112 8.99888 18.4569 9.24153 18.839 9.66742C19.2212 9.24163 19.7668 8.99901 20.339 9.00042C20.8224 8.99102 21.2893 9.17651 21.6345 9.5151C21.9797 9.85369 22.1741 10.3169 22.174 10.8004C22.174 12.2652 20.7245 13.4474 19.559 14.398L19.556 14.4004L19.499 14.4474L19.4808 14.4623C19.2505 14.6508 19.0329 14.829 18.838 15.0014L18.839 14.9994Z" fill="#F4B40C"/>
</svg>
