<svg width="24" height="24" viewBox="0 0 24 24" fill="none" xmlns="http://www.w3.org/2000/svg">
<path d="M15.74 13.0508C16.2761 11.5267 16.4414 9.52625 16.492 8.38198C16.5176 7.88642 16.111 7.48222 15.6156 7.5107C14.4717 7.56813 12.4632 7.75422 10.9513 8.29019M16.4752 8.72422C17.2405 8.54179 18.96 8.15835 20.3297 8.26243C20.4261 8.2695 20.5201 8.29667 20.6054 8.34219C20.6908 8.38771 20.7656 8.45058 20.8252 8.52676C20.8849 8.60294 20.9279 8.69074 20.9515 8.78453C20.9752 8.87832 20.979 8.97602 20.9627 9.07136C20.7191 10.3452 20.3109 11.582 19.7483 12.7505M20.1674 8.25408C20.7306 6.76596 20.9143 4.93663 20.9743 3.8644C20.9819 3.74874 20.9647 3.63278 20.9237 3.52434C20.8828 3.41591 20.8191 3.31751 20.7369 3.23579C20.6547 3.15407 20.5559 3.09092 20.4472 3.05061C20.3385 3.0103 20.2225 2.99376 20.1069 3.0021C18.6139 3.06982 17.1378 3.34711 15.722 3.82581M15.2736 7.53893C15.4515 6.76364 15.8248 5.04186 15.7126 3.67284C15.705 3.57642 15.6773 3.48265 15.6312 3.39758C15.5852 3.3125 15.5219 3.23799 15.4454 3.17883C15.3688 3.11967 15.2808 3.07716 15.1869 3.05405C15.0929 3.03094 14.9952 3.02772 14.9 3.04462C13.6276 3.29565 12.3932 3.71115 11.228 4.28063M6.17193 6.61976C7.38855 5.49519 8.74894 4.53694 10.2175 3.77006C10.3238 3.72129 10.4404 3.69913 10.5572 3.70548C10.674 3.71183 10.7874 3.7465 10.8878 3.80651C10.9882 3.86652 11.0725 3.95005 11.1334 4.04991C11.1943 4.14976 11.2299 4.26294 11.2373 4.37966C11.4237 6.47817 10.9631 9.15515 9.84488 11.8341M5.67506 18.3868L3.94149 20.1306C3.88295 20.1907 3.81301 20.2385 3.73576 20.2712C3.65851 20.304 3.57551 20.3209 3.49161 20.3212C3.40772 20.3214 3.32461 20.3049 3.24717 20.2727C3.16973 20.2404 3.09951 20.193 3.04062 20.1332M12.1941 14.1785C14.8754 13.0535 17.5496 12.5681 19.6492 12.7421C19.7659 12.7488 19.8793 12.7838 19.9795 12.8441C20.0797 12.9044 20.1638 12.9882 20.2244 13.0882C20.285 13.1883 20.3203 13.3015 20.3274 13.4183C20.3344 13.535 20.3129 13.6517 20.2648 13.7583C19.5066 15.2314 18.5563 16.5974 17.439 17.8206M7.0718 12.4637C7.06745 10.9863 6.7162 7.96033 6.09006 6.42166C5.90851 5.95374 5.34989 5.92835 5.03572 6.31666C3.62984 8.05019 2.91753 10.2439 3.03681 12.4726C3.15609 14.7014 4.09847 16.8065 5.68134 18.3801C7.26421 19.9537 9.37486 20.8836 11.6043 20.9898C13.8337 21.096 16.0232 20.3707 17.7484 18.9547C18.1348 18.6382 18.1062 18.0888 17.6372 17.901C16.0948 17.2839 13.0669 16.9505 11.5895 16.9548C11.9913 15.7465 12.392 14.1597 12.135 12.5569C12.1077 12.3908 12.0281 12.2377 11.9079 12.1198C11.7877 12.0019 11.6331 11.9254 11.4665 11.9012C9.53779 11.6366 8.31379 12.0456 7.0718 12.4637Z" stroke="#F4B40C" stroke-width="1.8" stroke-linecap="round" stroke-linejoin="round"/>
</svg>
