<svg width="194" height="73" viewBox="0 0 194 73" fill="none" xmlns="http://www.w3.org/2000/svg">
<circle cx="31" cy="36" r="31" fill="#F4B40C"/>
<g clip-path="url(#clip0_1479_8040)">
<path d="M48.4219 47.4888C48.2339 47.403 47.0656 47.1092 47.0593 47.0314C47.7892 45.764 48.1707 44.0035 47.8998 42.5567C47.8295 42.1803 47.6968 41.8571 47.598 41.4974C47.572 41.4029 47.6115 41.2806 47.572 41.2051C47.3595 40.8017 46.4045 40.9336 46.0072 40.8589C46.3089 39.6257 46.087 38.1503 45.3958 37.0775C45.2189 36.8027 44.7473 36.1944 44.463 36.0737C44.1517 35.9411 43.2489 36.3493 42.8832 36.3294C42.9424 36.2437 42.9645 36.1206 42.9717 36.0189C43.0562 34.8088 41.9898 32.8624 41.0119 32.1906C40.587 31.8984 39.9472 32.0779 39.4859 32.2081C39.3358 32.251 39.1857 32.2994 39.0372 32.3526L39.6107 28.6792C39.8121 27.7326 38.5364 27.7938 37.8777 27.635C37.7607 27.6072 37.6991 27.7088 37.7299 27.4896C39.5285 25.691 40.256 22.7219 39.3571 20.3071C38.4867 17.9693 35.2908 16.9545 33.0625 17.7541C31.9701 18.1464 31.2592 18.8539 30.523 19.7115C28.5206 16.0524 23.5435 15.757 20.4977 18.3227C18.0625 20.373 17.038 24.1648 19.1257 26.8361C19.2702 27.0211 20.038 27.7159 20.0546 27.7874C20.1217 28.0733 19.3374 27.9335 19.3619 28.7713C20.7805 37.7485 21.8334 46.7852 23.4053 55.7362C23.4195 56.292 22.3761 58.3638 22.7442 58.7188C22.85 58.8204 24.1596 58.9308 24.4448 58.9451C28.0814 59.1238 31.8603 58.799 35.5119 58.9451C36.722 58.7799 35.2892 56.9241 35.2931 56.3333L35.0254 55.9958C35.0933 55.9776 35.1541 55.9649 35.1968 55.9665C35.3555 55.9728 36.1225 56.292 36.3958 56.3587C41.3966 57.5721 46.7497 54.0162 48.6028 49.3874C48.7292 49.0714 48.9408 48.4695 48.993 48.1455C49.0562 47.7548 48.7149 47.623 48.4227 47.4896L48.4219 47.4888ZM46.9685 41.7539C47.4827 43.5009 47.0791 45.2947 46.3129 46.9035L44.7884 46.8273C43.7679 46.8876 42.7371 46.9273 41.7544 47.2497C41.6912 47.2092 41.6999 47.1862 41.7031 47.1227C41.711 46.9567 41.8184 46.6597 41.8397 46.4652C41.8942 45.9586 41.8674 45.2558 41.7971 44.7484C41.7213 44.2012 41.5198 43.6597 41.4582 43.1189C42.6059 42.3979 43.8879 41.9206 45.2252 41.7284C45.8002 41.6459 46.4021 41.5831 46.9685 41.7531V41.7539ZM43.3002 37.0401C43.4345 37.0012 44.2118 36.8059 44.2813 36.8226C44.5025 36.8766 44.9803 37.92 45.072 38.1741C45.3784 39.027 45.3097 39.9537 45.2623 40.8414L45.1186 40.9844C44.1067 41.1114 43.1186 41.4299 42.211 41.8984C42.0633 41.9746 41.2039 42.5233 41.1581 42.4836C40.7592 41.4203 40.0554 40.4555 39.2781 39.6352C39.2062 39.4931 39.5688 39.2366 39.6675 39.1453C40.6889 38.2003 41.9693 37.4261 43.301 37.0401H43.3002ZM40.7758 32.683C41.3271 33.4119 41.7876 34.2235 42.0404 35.1057C42.1747 35.5735 42.1857 36.0721 42.4037 36.5121C41.3279 37.0155 40.3058 37.6302 39.4116 38.4266L38.7276 39.1953C38.4969 39.0778 38.2916 38.9563 38.0491 39.1421C37.9795 38.0574 37.6754 37.0513 37.1596 36.0928C37.0317 35.8546 36.7552 35.5306 36.6691 35.3257C36.587 35.1288 36.9464 34.6364 37.0846 34.4856C38.0111 33.4739 39.5001 33.0165 40.7765 32.683H40.7758ZM34.6146 41.0964C34.4867 39.9719 33.7276 39.0698 33.0175 38.2472L32.1399 37.4253C32.5799 36.1055 33.5783 35.0025 34.7805 34.3299C34.8705 34.3498 35.786 35.444 35.9156 35.6171C36.7702 36.7519 37.2102 38.1558 37.2552 39.5646C36.3018 40.1966 35.4219 40.9375 34.6344 41.7713C34.5854 41.5514 34.6399 41.3171 34.6146 41.0964ZM34.3769 42.1009C34.0822 42.4439 33.7442 42.8314 33.5088 43.215C33.3113 43.5374 33.1668 44.0392 32.9835 44.3481C32.9495 44.4053 32.959 44.4363 32.8713 44.4212C31.6786 43.0109 30.2268 41.9135 28.5127 41.2456C28.3777 39.7901 28.8563 38.1368 29.8389 37.0362C31.3002 37.6294 32.5577 38.6307 33.3753 40.0005C33.7789 40.6763 33.9092 41.4656 34.3769 42.1009ZM24.5775 17.6612C26.7939 17.4825 28.5625 18.4188 29.6865 20.3023C29.9069 20.6724 29.9811 21.4847 30.6494 21.2806C31.1999 21.1123 30.8674 20.4294 30.9614 20.211C31.1825 19.6964 32.8066 18.7316 33.3626 18.5498C35.38 17.8891 38.0341 18.9294 38.553 21.1139C39.1391 23.5851 38.2165 26.0706 36.1952 27.5373C34.5649 27.4404 32.7947 27.3491 31.1596 27.434C30.5388 27.4666 28.8856 27.6032 28.4424 27.9764C27.8445 28.4807 28.4874 29.4082 27.7615 30.1657C26.9235 31.04 24.989 31.2346 23.9701 30.5945C23.0649 30.026 23.9432 28.7721 24.0056 28.171C24.1083 27.1736 23.3879 27.604 22.9701 27.6365C22.6178 27.6635 22.2434 27.6278 21.8848 27.6365C21.5475 27.6453 21.3674 27.8613 20.989 27.6405C20.8784 27.5762 20.4701 27.1228 20.3555 26.9886C17.1991 23.2953 20.023 18.0265 24.5783 17.6596L24.5775 17.6612ZM20.4495 28.429L22.82 28.3306C22.7852 28.8626 22.5988 29.3192 22.617 29.8687C22.7118 32.7401 28.2102 32.5647 28.9464 29.9696C29.2513 28.8952 28.5301 28.5402 29.9748 28.4259C31.0498 28.3409 32.2544 28.3488 33.331 28.3266C35.0949 28.2901 36.8619 28.3266 38.6178 28.4298L37.9566 32.8474C37.2015 33.277 36.5317 33.8558 36.0514 34.5777C35.519 34.1044 34.8966 33.4477 34.1438 33.8122C33.4045 34.1703 32.4472 35.1994 32.0348 35.9109C31.835 36.2556 31.6596 36.6566 31.5625 37.0425C30.8879 36.7868 30.2789 36.3969 29.5293 36.4192C29.2576 36.4271 29.0925 36.6487 28.9306 36.8607C28.2331 37.7707 27.7773 39.3009 27.7473 40.4404C27.7442 40.5572 27.8413 41.0217 27.7315 41.0424C27.5159 40.9804 27.2426 40.9097 27.0222 40.8851C26.8129 40.8621 26.0577 40.8303 25.8958 40.8978C25.6296 41.009 25.4637 41.5839 25.3729 41.865C24.057 45.9411 26.662 51.5783 29.8192 54.1734C30.35 54.6094 31.0783 55.0914 31.8595 55.4678L24.1028 55.5734C24.0909 55.3614 24.1273 55.1414 24.1028 54.9294C23.0546 46.0753 21.5017 37.2784 20.4503 28.429H20.4495ZM23.7086 57.9501L24.0498 56.3611C24.1241 56.2531 24.2371 56.2754 24.3453 56.2611C25.5886 56.1038 26.9606 56.3532 28.1968 56.3691C30.2679 56.3961 32.3429 56.3452 34.414 56.3595L34.8658 57.9501H23.7086ZM34.8816 54.7571C34.8081 55.0024 34.7197 55.2438 34.6138 55.4773L34.5759 55.4297L33.8816 55.4392C30.7213 54.7452 28.1565 51.7229 26.8942 48.8768C25.8879 46.6065 25.3626 43.8002 26.331 41.4323C29.0577 41.599 31.3911 43.5263 32.9211 45.6989C34.6391 48.1383 35.756 51.8213 34.8816 54.7571ZM33.3769 45.0231C33.6581 44.5522 33.8753 44.0392 34.1794 43.5811C35.0506 42.2652 36.3658 41.0749 37.7047 40.2562C37.8208 40.1855 38.3555 39.8369 38.4314 39.852C40.1723 41.4211 41.1596 43.9106 41.0483 46.2468C41.0301 46.6248 40.9306 46.9996 40.9377 47.3808C40.8792 47.5428 40.2292 47.7389 40.0293 47.8358C38.801 48.4329 37.632 49.2286 36.7607 50.3014C36.4472 50.6882 36.2086 51.144 35.9416 51.5617C35.6754 49.1842 34.7623 46.9702 33.3777 45.0239L33.3769 45.0231ZM47.1652 50.5563C44.9416 54.0154 40.5862 56.6407 36.4314 55.5003C36.2971 55.4638 35.5728 55.2399 35.5562 55.1613C35.6818 54.7666 35.7765 54.3624 35.8421 53.9534C35.9092 53.535 35.8934 52.4224 35.9906 52.1636C36.2323 51.5251 37.3942 50.3443 37.9211 49.8837C40.4353 47.6873 44.3042 47.0592 47.4408 48.0335C47.6028 48.0835 48.2165 48.2447 48.2442 48.3996C48.2758 48.5775 47.3303 50.2983 47.1652 50.5555V50.5563Z" fill="black"/>
<path d="M39.15 16.7116C39.3783 16.6481 39.6524 16.1478 39.7788 15.9302C40.2535 15.1187 40.4905 14.2134 40.616 13.2891C40.6255 13.1819 40.5489 13.1263 40.447 13.1581C40.1508 13.6988 39.8901 14.2571 39.5931 14.7986C39.368 15.2092 38.9352 15.7643 38.774 16.1708C38.6603 16.4583 38.8135 16.8045 39.1492 16.7116H39.15Z" fill="black"/>
<path d="M37.2687 15.7245C37.2094 15.1806 36.884 13.9815 36.6841 13.4606C36.6352 13.3335 36.5277 12.8984 36.35 13.0215C36.1968 13.1279 36.3548 15.7841 36.6636 16.097C36.9488 16.3852 37.316 16.1645 37.2679 15.7245H37.2687Z" fill="black"/>
<path d="M40.6168 18.3991C40.7645 18.4547 41.2179 18.1926 41.3672 18.1061C41.9746 17.7535 42.6026 17.2977 43.1926 16.9086C43.1247 16.799 43.1065 16.8752 43.0402 16.8848C42.4628 16.9705 41.6358 17.3334 41.1286 17.6312C40.9304 17.7471 40.0852 18.199 40.6168 18.3999V18.3991Z" fill="black"/>
</g>
<path d="M188.487 49.8668H193.981V52.6139H185.048V37.7898H188.487V49.8668Z" fill="#393939"/>
<path d="M181.197 52.6139H178.531C178.233 52.6139 177.985 52.546 177.788 52.4104C177.598 52.2679 177.466 52.0882 177.392 51.8712L176.517 49.2869H170.88L170.005 51.8712C169.937 52.0611 169.805 52.234 169.608 52.39C169.411 52.5393 169.171 52.6139 168.886 52.6139H166.2L171.938 37.7898H175.458L181.197 52.6139ZM171.674 46.9467H175.723L174.36 42.8872C174.271 42.6294 174.166 42.3276 174.044 41.9816C173.929 41.6289 173.814 41.2491 173.698 40.8421C173.59 41.2559 173.478 41.6391 173.362 41.9918C173.247 42.3445 173.139 42.6498 173.037 42.9075L171.674 46.9467Z" fill="#393939"/>
<path d="M151.184 37.7898C151.334 37.7898 151.459 37.7966 151.561 37.8101C151.663 37.8237 151.754 37.8508 151.835 37.8915C151.917 37.9255 151.995 37.9763 152.07 38.0442C152.144 38.112 152.229 38.2036 152.324 38.3189L159.365 47.2215C159.337 46.9366 159.317 46.6619 159.303 46.3973C159.29 46.126 159.283 45.8716 159.283 45.6342V37.7898H162.315V52.6139H160.524C160.26 52.6139 160.036 52.5732 159.853 52.4918C159.67 52.4104 159.493 52.2612 159.324 52.0441L152.334 43.2127C152.354 43.4705 152.371 43.7249 152.385 43.9758C152.398 44.22 152.405 44.4506 152.405 44.6677V52.6139H149.373V37.7898H151.184Z" fill="#393939"/>
<path d="M145.083 45.1969C145.083 46.2686 144.897 47.2657 144.524 48.1882C144.158 49.1107 143.639 49.9145 142.967 50.5995C142.296 51.2778 141.485 51.8103 140.536 52.1969C139.593 52.5836 138.545 52.7769 137.392 52.7769C136.239 52.7769 135.187 52.5836 134.238 52.1969C133.288 51.8103 132.474 51.2778 131.796 50.5995C131.124 49.9145 130.602 49.1107 130.229 48.1882C129.863 47.2657 129.679 46.2686 129.679 45.1969C129.679 44.1252 129.863 43.1282 130.229 42.2057C130.602 41.2832 131.124 40.4828 131.796 39.8045C132.474 39.1262 133.288 38.5938 134.238 38.2071C135.187 37.8205 136.239 37.6272 137.392 37.6272C138.545 37.6272 139.593 37.8239 140.536 38.2173C141.485 38.6039 142.296 39.1364 142.967 39.8147C143.639 40.493 144.158 41.2934 144.524 42.2158C144.897 43.1383 145.083 44.132 145.083 45.1969ZM141.563 45.1969C141.563 44.4644 141.468 43.8064 141.278 43.2231C141.088 42.633 140.814 42.1345 140.454 41.7275C140.101 41.3205 139.667 41.0085 139.152 40.7914C138.636 40.5744 138.05 40.4659 137.392 40.4659C136.727 40.4659 136.133 40.5744 135.611 40.7914C135.096 41.0085 134.658 41.3205 134.299 41.7275C133.946 42.1345 133.675 42.633 133.485 43.2231C133.295 43.8064 133.2 44.4644 133.2 45.1969C133.2 45.9363 133.295 46.601 133.485 47.1911C133.675 47.7745 133.946 48.2696 134.299 48.6766C134.658 49.0836 135.096 49.3956 135.611 49.6126C136.133 49.8229 136.727 49.928 137.392 49.928C138.05 49.928 138.636 49.8229 139.152 49.6126C139.667 49.3956 140.101 49.0836 140.454 48.6766C140.814 48.2696 141.088 47.7745 141.278 47.1911C141.468 46.601 141.563 45.9363 141.563 45.1969Z" fill="#393939"/>
<path d="M125.054 52.6139H121.595V37.7898H125.054V52.6139Z" fill="#393939"/>
<path d="M115.231 48.7783C115.313 48.7783 115.394 48.7953 115.476 48.8292C115.557 48.8563 115.635 48.9072 115.71 48.9818L117.073 50.4164C116.476 51.1964 115.727 51.7866 114.824 52.1867C113.929 52.5802 112.868 52.7769 111.64 52.7769C110.514 52.7769 109.503 52.5869 108.608 52.2071C107.719 51.8205 106.963 51.2914 106.339 50.6199C105.722 49.9416 105.247 49.1412 104.915 48.2187C104.582 47.2895 104.416 46.2822 104.416 45.1969C104.416 44.0913 104.606 43.0773 104.986 42.1548C105.366 41.2255 105.895 40.4252 106.573 39.7536C107.258 39.0821 108.075 38.5599 109.025 38.1868C109.975 37.8137 111.023 37.6272 112.169 37.6272C112.725 37.6272 113.247 37.6781 113.736 37.7798C114.231 37.8748 114.692 38.0104 115.119 38.1868C115.547 38.3564 115.94 38.5632 116.3 38.8074C116.659 39.0448 116.978 39.3094 117.256 39.601L116.096 41.1577C116.022 41.2527 115.933 41.3408 115.832 41.4222C115.73 41.4969 115.587 41.5342 115.404 41.5342C115.282 41.5342 115.167 41.507 115.058 41.4528C114.95 41.3985 114.835 41.3341 114.712 41.2595C114.59 41.1781 114.455 41.0933 114.306 41.0051C114.163 40.9101 113.99 40.8253 113.787 40.7507C113.59 40.6693 113.356 40.6015 113.085 40.5472C112.82 40.493 112.508 40.4659 112.149 40.4659C111.525 40.4659 110.955 40.5778 110.439 40.8016C109.924 41.0187 109.479 41.3341 109.106 41.7478C108.74 42.1548 108.452 42.65 108.242 43.2333C108.038 43.8166 107.936 44.4712 107.936 45.1969C107.936 45.9566 108.038 46.6315 108.242 47.2216C108.452 47.8118 108.733 48.3103 109.086 48.7173C109.446 49.1175 109.863 49.4227 110.338 49.633C110.812 49.8433 111.321 49.9484 111.864 49.9484C112.176 49.9484 112.461 49.9348 112.718 49.9077C112.976 49.8738 113.213 49.8195 113.431 49.7449C113.654 49.6703 113.865 49.5753 114.061 49.46C114.265 49.3379 114.468 49.1887 114.672 49.0123C114.753 48.9445 114.841 48.8902 114.936 48.8496C115.031 48.8021 115.13 48.7783 115.231 48.7783Z" fill="#393939"/>
<path d="M102.035 52.6139H99.369C99.0705 52.6139 98.8229 52.546 98.6262 52.4104C98.4363 52.2679 98.304 52.0882 98.2294 51.8712L97.3544 49.2869H91.7178L90.8428 51.8712C90.775 52.0611 90.6427 52.234 90.446 52.39C90.2493 52.5393 90.0085 52.6139 89.7236 52.6139H87.0376L92.776 37.7898H96.2963L102.035 52.6139ZM92.5114 46.9467H96.5608L95.1975 42.8872C95.1093 42.6294 95.0041 42.3276 94.8821 41.9816C94.7667 41.6289 94.6514 41.2491 94.5361 40.8421C94.4276 41.2559 94.3157 41.6391 94.2004 41.9918C94.0851 42.3445 93.9765 42.6498 93.8748 42.9075L92.5114 46.9467Z" fill="#393939"/>
<path d="M72.0227 37.7898C72.1719 37.7898 72.2974 37.7966 72.3992 37.8101C72.5009 37.8237 72.5925 37.8508 72.6739 37.8915C72.7553 37.9255 72.8333 37.9763 72.9079 38.0442C72.9825 38.112 73.0673 38.2036 73.1622 38.3189L80.2029 47.2215C80.1758 46.9366 80.1554 46.6619 80.1419 46.3973C80.1283 46.126 80.1215 45.8716 80.1215 45.6342V37.7898H83.1535V52.6139H81.3628C81.0983 52.6139 80.8744 52.5732 80.6913 52.4918C80.5082 52.4104 80.3318 52.2612 80.1622 52.0441L73.1724 43.2127C73.1928 43.4705 73.2097 43.7249 73.2233 43.9758C73.2369 44.22 73.2436 44.4506 73.2436 44.6677V52.6139H70.2117V37.7898H72.0227Z" fill="#393939"/>
<path d="M194 26.1624C194 27.092 193.859 27.9365 193.576 28.696C193.294 29.4499 192.897 30.0961 192.384 30.6345C191.871 31.1673 191.258 31.5811 190.543 31.8758C189.829 32.1649 189.037 32.3094 188.167 32.3094C187.308 32.3094 186.522 32.1649 185.807 31.8758C185.093 31.5811 184.479 31.1673 183.967 30.6345C183.454 30.0961 183.053 29.4499 182.765 28.696C182.483 27.9365 182.342 27.092 182.342 26.1624C182.342 25.2385 182.483 24.3996 182.765 23.6458C183.053 22.8863 183.454 22.2401 183.967 21.7073C184.479 21.1688 185.093 20.7522 185.807 20.4575C186.522 20.1628 187.308 20.0154 188.167 20.0154C189.037 20.0154 189.829 20.1628 190.543 20.4575C191.258 20.7466 191.871 21.1603 192.384 21.6988C192.897 22.2373 193.294 22.8863 193.576 23.6458C193.859 24.3996 194 25.2385 194 26.1624ZM193.084 26.1624C193.084 25.3235 192.966 24.5697 192.73 23.9008C192.493 23.232 192.159 22.6652 191.727 22.2004C191.301 21.7356 190.785 21.3814 190.18 21.1377C189.575 20.8883 188.904 20.7636 188.167 20.7636C187.441 20.7636 186.775 20.8883 186.17 21.1377C185.571 21.3814 185.053 21.7356 184.615 22.2004C184.183 22.6652 183.846 23.232 183.604 23.9008C183.367 24.5697 183.249 25.3235 183.249 26.1624C183.249 27.007 183.367 27.7636 183.604 28.4325C183.846 29.0956 184.183 29.6596 184.615 30.1244C185.053 30.5892 185.571 30.9434 186.17 31.1872C186.775 31.4309 187.441 31.5527 188.167 31.5527C188.904 31.5527 189.575 31.4309 190.18 31.1872C190.785 30.9434 191.301 30.5892 191.727 30.1244C192.159 29.6596 192.493 29.0956 192.73 28.4325C192.966 27.7636 193.084 27.007 193.084 26.1624Z" fill="#393939"/>
<path d="M176.831 32.3094H175.983V20.0154H176.831V32.3094Z" fill="#393939"/>
<path d="M163.917 26.7489V32.3094H163.053V20.0154H166.111C167.494 20.0154 168.528 20.2905 169.211 20.8408C169.894 21.3852 170.236 22.1875 170.236 23.2475C170.236 23.7166 170.157 24.1453 169.999 24.5333C169.84 24.9214 169.612 25.2632 169.313 25.5586C169.019 25.8482 168.663 26.0886 168.245 26.2797C167.827 26.4651 167.356 26.5867 166.831 26.6446C166.966 26.7315 167.088 26.8473 167.195 26.9921L171.32 32.3094H170.566C170.476 32.3094 170.397 32.2921 170.329 32.2573C170.267 32.2226 170.205 32.1646 170.143 32.0835L166.306 27.0964C166.21 26.969 166.105 26.8792 165.992 26.8271C165.885 26.7749 165.716 26.7489 165.484 26.7489H163.917ZM163.917 26.0886H166.001C166.532 26.0886 167.006 26.0248 167.424 25.8974C167.847 25.7642 168.203 25.5759 168.491 25.3327C168.785 25.0894 169.008 24.7969 169.16 24.4551C169.313 24.1134 169.389 23.7282 169.389 23.2996C169.389 22.425 169.109 21.7762 168.55 21.3534C167.991 20.9306 167.178 20.7191 166.111 20.7191H163.917V26.0886Z" fill="#393939"/>
<path d="M158.602 32.3094H157.924C157.844 32.3094 157.778 32.2892 157.727 32.2486C157.675 32.2023 157.635 32.1444 157.607 32.0749L156.174 28.5039H150.211L148.787 32.0749C148.764 32.1386 148.724 32.1936 148.667 32.2399C148.61 32.2863 148.541 32.3094 148.461 32.3094H147.792L152.759 20.0154H153.634L158.602 32.3094ZM150.477 27.8436H155.917L153.437 21.6314C153.397 21.533 153.357 21.4229 153.317 21.3013C153.277 21.1738 153.237 21.0406 153.197 20.9016C153.157 21.0406 153.117 21.1738 153.077 21.3013C153.037 21.4229 152.997 21.5358 152.957 21.6401L150.477 27.8436Z" fill="#393939"/>
<path d="M144.4 20.0154V20.3195C144.4 20.4411 144.361 20.5599 144.281 20.6757L136.653 31.5709H144.332V32.3094H135.498V31.988C135.498 31.8779 135.532 31.7737 135.6 31.6752L143.245 20.7539H135.719V20.0154H144.4Z" fill="#393939"/>
<path d="M131.258 20.0154V20.7539H124.741V25.7236H130.165V26.4448H124.741V31.5709H131.258V32.3094H123.84V20.0154H131.258Z" fill="#393939"/>
<path d="M109.002 20.0154H109.697C109.778 20.0154 109.843 20.0385 109.895 20.0849C109.946 20.1254 109.987 20.1805 110.015 20.25L114.154 30.4501C114.263 30.7166 114.351 31.0004 114.42 31.3016C114.483 30.9888 114.566 30.705 114.669 30.4501L118.799 20.25C118.828 20.1863 118.868 20.1312 118.919 20.0849C118.976 20.0385 119.045 20.0154 119.125 20.0154H119.812L114.798 32.3094H114.016L109.002 20.0154Z" fill="#393939"/>
<path d="M98.8437 26.7489V32.3094H97.9797V20.0154H101.037C102.421 20.0154 103.454 20.2905 104.137 20.8408C104.821 21.3852 105.162 22.1875 105.162 23.2475C105.162 23.7166 105.083 24.1453 104.925 24.5333C104.767 24.9214 104.538 25.2632 104.239 25.5586C103.945 25.8482 103.59 26.0886 103.172 26.2797C102.754 26.4651 102.282 26.5867 101.757 26.6446C101.893 26.7315 102.014 26.8473 102.122 26.9921L106.246 32.3094H105.493C105.402 32.3094 105.323 32.2921 105.255 32.2573C105.193 32.2226 105.131 32.1646 105.069 32.0835L101.232 27.0964C101.136 26.969 101.032 26.8792 100.919 26.8271C100.812 26.7749 100.642 26.7489 100.411 26.7489H98.8437ZM98.8437 26.0886H100.927C101.458 26.0886 101.932 26.0248 102.35 25.8974C102.774 25.7642 103.129 25.5759 103.417 25.3327C103.711 25.0894 103.934 24.7969 104.087 24.4551C104.239 24.1134 104.315 23.7282 104.315 23.2996C104.315 22.425 104.036 21.7762 103.477 21.3534C102.918 20.9306 102.105 20.7191 101.037 20.7191H98.8437V26.0886Z" fill="#393939"/>
<path d="M92.4681 20.0154V20.7539H85.9504V25.7236H91.3746V26.4448H85.9504V31.5709H92.4681V32.3094H85.0493V20.0154H92.4681Z" fill="#393939"/>
<path d="M79.6791 30.1511C79.7371 30.1511 79.7863 30.171 79.8268 30.2106L80.1744 30.576C79.9195 30.8422 79.6415 31.0829 79.3403 31.2981C79.0391 31.5077 78.7089 31.689 78.3498 31.8419C77.9964 31.9892 77.6055 32.1024 77.1768 32.1817C76.754 32.2667 76.2877 32.3092 75.7779 32.3092C74.9265 32.3092 74.1445 32.1648 73.432 31.8759C72.7253 31.5813 72.1171 31.1679 71.6074 30.6354C71.1035 30.0973 70.7096 29.4488 70.4257 28.6898C70.1419 27.9308 70 27.0868 70 26.1579C70 25.246 70.1448 24.4134 70.4344 23.66C70.7298 22.9067 71.1411 22.261 71.6682 21.7229C72.2011 21.1791 72.8354 20.76 73.571 20.4654C74.3125 20.1652 75.1292 20.0151 76.0212 20.0151C76.4672 20.0151 76.8756 20.0491 77.2463 20.1171C77.617 20.1794 77.9617 20.2729 78.2803 20.3975C78.6046 20.5164 78.9087 20.6665 79.1926 20.8478C79.4764 21.029 79.7544 21.2386 80.0267 21.4765L79.7573 21.8588C79.711 21.9268 79.6386 21.9608 79.5401 21.9608C79.488 21.9608 79.4214 21.9325 79.3403 21.8758C79.2592 21.8135 79.1549 21.7399 79.0275 21.6549C78.9058 21.5643 78.7552 21.468 78.5757 21.366C78.4019 21.2584 78.1934 21.1621 77.9501 21.0772C77.7068 20.9865 77.4259 20.9129 77.1073 20.8563C76.7887 20.794 76.4267 20.7628 76.0212 20.7628C75.274 20.7628 74.5876 20.8902 73.962 21.1451C73.3364 21.3944 72.7977 21.754 72.3459 22.2242C71.8941 22.6886 71.5408 23.255 71.2859 23.9234C71.0368 24.5861 70.9123 25.3309 70.9123 26.1579C70.9123 27.0075 71.0368 27.7665 71.2859 28.4349C71.535 29.1033 71.8796 29.6697 72.3199 30.1342C72.7601 30.593 73.2785 30.947 73.8751 31.1962C74.4775 31.4397 75.1292 31.5615 75.8301 31.5615C76.2703 31.5615 76.6613 31.5332 77.003 31.4766C77.3506 31.4199 77.6692 31.335 77.9588 31.2217C78.2484 31.1084 78.5178 30.9696 78.7668 30.8054C79.0159 30.6411 79.2621 30.4485 79.5054 30.2276C79.5343 30.205 79.5604 30.188 79.5836 30.1766C79.6125 30.1596 79.6444 30.1511 79.6791 30.1511Z" fill="#393939"/>
<defs>
<clipPath id="clip0_1479_8040">
<rect width="31" height="46" fill="white" transform="translate(18 13)"/>
</clipPath>
</defs>
</svg>
