<svg width="194" height="194" viewBox="0 0 194 194" fill="none" xmlns="http://www.w3.org/2000/svg">
<rect width="194" height="194" rx="97" fill="#FBFAFC"/>
<circle cx="96.5" cy="97" r="85.5" fill="#F4B40C"/>
<g clip-path="url(#clip0_1390_13440)">
<path d="M136.228 126.689C135.72 126.459 132.563 125.669 132.546 125.46C134.518 122.054 135.549 117.323 134.817 113.434C134.627 112.423 134.268 111.554 134.002 110.587C133.931 110.333 134.038 110.005 133.931 109.802C133.357 108.718 130.776 109.072 129.702 108.872C130.517 105.557 129.917 101.592 128.049 98.7088C127.571 97.9704 126.296 96.3356 125.528 96.0113C124.686 95.6549 122.246 96.7518 121.258 96.6985C121.418 96.468 121.478 96.1372 121.497 95.864C121.725 92.6116 118.843 87.3808 116.2 85.5753C115.051 84.79 113.322 85.2723 112.075 85.6223C111.669 85.7375 111.264 85.8677 110.862 86.0107L112.412 76.1382C112.957 73.5943 109.509 73.7586 107.728 73.3318C107.412 73.2571 107.245 73.5302 107.329 72.9412C112.19 68.1074 114.157 60.1279 111.727 53.6379C109.374 47.355 100.736 44.6276 94.7129 46.7767C91.7601 47.831 89.8386 49.7325 87.8487 52.0373C82.4365 42.2032 68.9837 41.4093 60.751 48.3047C54.1687 53.8151 51.3996 64.0056 57.0425 71.1848C57.4332 71.6821 59.5084 73.5495 59.5533 73.7415C59.7347 74.5098 57.6147 74.1342 57.6808 76.3857C61.5153 100.512 64.3613 124.799 68.61 148.855C68.6485 150.349 65.8281 155.917 66.823 156.87C67.1091 157.144 70.649 157.44 71.4197 157.479C81.2494 157.959 91.4633 157.086 101.334 157.479C104.604 157.035 100.731 152.047 100.742 150.46L100.018 149.553C100.202 149.503 100.366 149.469 100.482 149.474C100.911 149.491 102.984 150.349 103.723 150.528C117.24 153.789 131.709 144.232 136.717 131.792C137.059 130.943 137.631 129.325 137.772 128.454C137.943 127.404 137.021 127.05 136.231 126.692L136.228 126.689ZM132.3 111.277C133.69 115.972 132.599 120.793 130.528 125.117L126.407 124.912C123.649 125.074 120.863 125.181 118.207 126.047C118.036 125.938 118.059 125.876 118.068 125.706C118.089 125.26 118.38 124.461 118.437 123.939C118.585 122.577 118.512 120.688 118.322 119.325C118.117 117.854 117.573 116.399 117.406 114.945C120.508 113.008 123.973 111.725 127.588 111.208C129.142 110.987 130.769 110.818 132.3 111.275V111.277ZM122.385 98.6085C122.748 98.5039 124.849 97.9789 125.037 98.0238C125.634 98.1689 126.926 100.973 127.174 101.656C128.002 103.948 127.816 106.439 127.688 108.825L127.3 109.209C124.565 109.55 121.894 110.406 119.441 111.665C119.041 111.87 116.719 113.345 116.595 113.238C115.517 110.38 113.614 107.787 111.513 105.583C111.319 105.201 112.299 104.512 112.566 104.266C115.327 101.726 118.787 99.6457 122.387 98.6085H122.385ZM115.561 86.8985C117.052 88.8576 118.296 91.0387 118.98 93.4097C119.343 94.6668 119.372 96.007 119.962 97.1893C117.054 98.5423 114.291 100.194 111.874 102.335L110.025 104.401C109.402 104.085 108.847 103.758 108.191 104.258C108.003 101.342 107.181 98.6384 105.787 96.0625C105.441 95.4222 104.694 94.5515 104.461 94.0009C104.239 93.4716 105.211 92.1485 105.584 91.743C108.089 89.0241 112.113 87.7948 115.564 86.8985H115.561ZM98.9082 109.51C98.5623 106.488 96.5105 104.063 94.5912 101.852L92.2191 99.6436C93.4084 96.0966 96.107 93.1323 99.3565 91.3247C99.5999 91.378 102.074 94.3189 102.425 94.7841C104.735 97.8338 105.924 101.607 106.046 105.393C103.469 107.092 101.09 109.083 98.9616 111.324C98.8292 110.733 98.9765 110.103 98.9082 109.51ZM98.2655 112.209C97.4692 113.131 96.5554 114.173 95.9191 115.204C95.3854 116.07 94.9947 117.419 94.4994 118.249C94.4075 118.403 94.4332 118.486 94.1962 118.445C90.9723 114.655 87.0481 111.706 82.4151 109.911C82.05 105.999 83.3438 101.556 85.9998 98.5978C89.9496 100.192 93.3486 102.883 95.5583 106.565C96.6493 108.381 97.0016 110.502 98.2655 112.209ZM71.7784 46.527C77.7693 46.0468 82.5496 48.563 85.5878 53.6251C86.1834 54.6196 86.3841 56.8029 88.1903 56.2544C89.6785 55.802 88.7796 53.9666 89.0337 53.3797C89.6315 51.9968 94.0211 49.4038 95.5242 48.9151C100.977 47.1395 108.151 49.9352 109.553 55.8062C111.138 62.4477 108.644 69.1275 103.18 73.0693C98.7737 72.8089 93.9891 72.5635 89.5696 72.7918C87.8914 72.8793 83.4228 73.2464 82.2251 74.2495C80.6089 75.6046 82.3468 78.0973 80.3847 80.1333C78.1194 82.483 72.8908 83.0058 70.1366 81.2857C67.6898 79.7577 70.064 76.3879 70.2327 74.7723C70.5102 72.0918 68.5631 73.2485 67.4336 73.336C66.4814 73.4086 65.4694 73.3126 64.5001 73.336C63.5885 73.3595 63.1017 73.94 62.079 73.3467C61.7801 73.1738 60.6763 71.9553 60.3667 71.5946C51.8351 61.6687 59.4679 47.5087 71.7805 46.5227L71.7784 46.527ZM60.6208 75.4659L67.028 75.2013C66.934 76.6311 66.4302 77.8583 66.4793 79.3351C66.7355 87.0521 81.5974 86.5805 83.5872 79.6061C84.4114 76.7186 82.4621 75.7647 86.367 75.4574C89.2728 75.229 92.5287 75.2504 95.4388 75.1906C100.206 75.0924 104.982 75.1906 109.728 75.468L107.941 87.3403C105.9 88.4948 104.09 90.0506 102.792 91.9905C101.353 90.7186 99.6704 88.9537 97.6357 89.9332C95.6373 90.8957 93.0497 93.6616 91.9352 95.5738C91.395 96.5 90.921 97.5777 90.6584 98.6149C88.8351 97.9277 87.189 96.8799 85.1629 96.9396C84.4284 96.961 83.9822 97.5564 83.5445 98.1262C81.6593 100.572 80.4274 104.684 80.3463 107.747C80.3377 108.061 80.6003 109.309 80.3036 109.365C79.7207 109.198 78.982 109.008 78.3863 108.942C77.8205 108.88 75.7794 108.795 75.3418 108.976C74.6223 109.275 74.1739 110.82 73.9284 111.576C70.3714 122.53 77.4127 137.68 85.9464 144.655C87.3812 145.826 89.3497 147.122 91.4612 148.133L70.4953 148.417C70.4632 147.847 70.5614 147.256 70.4953 146.686C67.6621 122.891 63.4646 99.2487 60.6229 75.4659H60.6208ZM69.4299 154.805L70.3522 150.534C70.5529 150.244 70.8582 150.304 71.1507 150.265C74.5112 149.843 78.2198 150.513 81.5611 150.556C87.1591 150.628 92.7678 150.492 98.3659 150.53L99.5871 154.805H69.4299ZM99.6298 146.223C99.4313 146.883 99.1921 147.531 98.906 148.159L98.8036 148.031L96.9269 148.056C88.3846 146.191 81.4522 138.069 78.0404 130.42C75.3204 124.318 73.9006 116.776 76.5182 110.412C83.8883 110.861 90.1951 116.04 94.3307 121.879C98.9744 128.435 101.993 138.333 99.6298 146.223ZM95.5626 120.063C96.3227 118.797 96.9098 117.419 97.7318 116.187C100.087 112.651 103.642 109.452 107.26 107.252C107.574 107.062 109.02 106.125 109.225 106.165C113.93 110.383 116.599 117.073 116.298 123.352C116.249 124.368 115.98 125.375 115.999 126.399C115.841 126.835 114.084 127.362 113.544 127.622C110.224 129.227 107.064 131.365 104.709 134.249C103.861 135.288 103.217 136.513 102.495 137.635C101.776 131.246 99.3074 125.296 95.5647 120.065L95.5626 120.063ZM132.832 134.934C126.822 144.23 115.049 151.285 103.819 148.221C103.456 148.123 101.498 147.521 101.453 147.31C101.793 146.249 102.049 145.163 102.226 144.064C102.407 142.939 102.365 139.949 102.627 139.253C103.281 137.537 106.421 134.364 107.845 133.126C114.641 127.223 125.099 125.535 133.577 128.154C134.014 128.288 135.673 128.721 135.748 129.137C135.833 129.615 133.278 134.24 132.832 134.932V134.934Z" fill="white"/>
<path d="M111.167 43.9746C111.785 43.8038 112.525 42.4593 112.867 41.8746C114.15 39.6935 114.791 37.2606 115.13 34.7764C115.156 34.4883 114.949 34.3389 114.673 34.4243C113.873 35.8776 113.168 37.3779 112.365 38.8334C111.757 39.9368 110.587 41.4285 110.151 42.5212C109.844 43.2938 110.258 44.2242 111.165 43.9746H111.167Z" fill="white"/>
<path d="M106.082 41.3219C105.922 39.8601 105.042 36.6375 104.502 35.2375C104.369 34.896 104.079 33.7265 103.599 34.0573C103.185 34.3433 103.612 41.482 104.446 42.3228C105.217 43.0975 106.21 42.5042 106.08 41.3219H106.082Z" fill="white"/>
<path d="M115.132 48.5096C115.531 48.659 116.757 47.9548 117.16 47.7221C118.802 46.7746 120.5 45.5496 122.094 44.5039C121.911 44.2094 121.862 44.4142 121.682 44.4398C120.122 44.6703 117.886 45.6456 116.516 46.4459C115.98 46.7575 113.695 47.9718 115.132 48.5118V48.5096Z" fill="white"/>
</g>
<g clip-path="url(#clip1_1390_13440)">
<path d="M138.976 128.064C138.468 127.833 135.31 127.043 135.293 126.834C137.266 123.428 138.297 118.697 137.564 114.808C137.374 113.797 137.016 112.928 136.749 111.961C136.678 111.707 136.785 111.379 136.678 111.176C136.104 110.092 133.523 110.446 132.449 110.246C133.265 106.931 132.665 102.966 130.796 100.083C130.318 99.3444 129.044 97.7097 128.275 97.3853C127.434 97.0289 124.993 98.1258 124.005 98.0725C124.165 97.842 124.225 97.5112 124.244 97.238C124.473 93.9856 121.59 88.7548 118.947 86.9493C117.798 86.164 116.069 86.6463 114.822 86.9963C114.417 87.1115 114.011 87.2417 113.609 87.3847L115.16 77.5122C115.704 74.9683 112.256 75.1326 110.475 74.7058C110.159 74.6311 109.993 74.9043 110.076 74.3152C114.937 69.4814 116.904 61.5019 114.474 55.012C112.121 48.7291 103.483 46.0016 97.4602 48.1507C94.5074 49.205 92.5859 51.1065 90.5961 53.4114C85.1838 43.5773 71.731 42.7834 63.4983 49.6788C56.916 55.1891 54.1469 65.3796 59.7898 72.5589C60.1805 73.0561 62.2557 74.9235 62.3006 75.1155C62.482 75.8838 60.362 75.5082 60.4282 77.7597C64.2627 101.886 67.1086 126.173 71.3573 150.229C71.3958 151.723 68.5754 157.291 69.5703 158.245C69.8564 158.518 73.3963 158.814 74.167 158.853C83.9967 159.333 94.2107 158.46 104.081 158.853C107.352 158.409 103.479 153.421 103.489 151.834L102.766 150.927C102.949 150.877 103.114 150.843 103.229 150.848C103.658 150.865 105.731 151.723 106.47 151.902C119.987 155.163 134.456 145.606 139.465 133.166C139.806 132.317 140.378 130.699 140.519 129.828C140.69 128.778 139.768 128.424 138.978 128.066L138.976 128.064ZM135.047 112.651C136.437 117.346 135.346 122.167 133.275 126.491L129.155 126.286C126.396 126.448 123.61 126.555 120.954 127.421C120.783 127.312 120.807 127.25 120.815 127.08C120.837 126.634 121.127 125.835 121.185 125.313C121.332 123.951 121.259 122.062 121.069 120.699C120.864 119.228 120.32 117.773 120.153 116.319C123.256 114.382 126.721 113.099 130.335 112.582C131.89 112.361 133.516 112.192 135.047 112.649V112.651ZM125.132 99.9825C125.495 99.878 127.596 99.353 127.784 99.3978C128.382 99.5429 129.673 102.347 129.921 103.03C130.749 105.322 130.564 107.813 130.436 110.199L130.047 110.583C127.312 110.924 124.641 111.78 122.188 113.039C121.789 113.244 119.466 114.719 119.342 114.612C118.264 111.754 116.362 109.161 114.261 106.957C114.066 106.575 115.046 105.886 115.313 105.64C118.074 103.101 121.535 101.02 125.134 99.9825H125.132ZM118.309 88.2725C119.799 90.2317 121.044 92.4127 121.727 94.7838C122.09 96.0408 122.12 97.381 122.709 98.5633C119.801 99.9164 117.038 101.568 114.622 103.709L112.773 105.775C112.149 105.459 111.594 105.132 110.939 105.632C110.751 102.716 109.929 100.012 108.535 97.4365C108.189 96.7963 107.441 95.9255 107.209 95.3749C106.987 94.8457 107.958 93.5225 108.332 93.117C110.836 90.3981 114.861 89.1688 118.311 88.2725H118.309ZM101.655 110.884C101.31 107.862 99.2579 105.437 97.3385 103.226L94.9665 101.018C96.1557 97.4706 98.8543 94.5063 102.104 92.6987C102.347 92.7521 104.822 95.6929 105.172 96.1582C107.482 99.2078 108.671 102.981 108.793 106.767C106.216 108.466 103.837 110.457 101.709 112.698C101.576 112.107 101.724 111.477 101.655 110.884ZM101.013 113.583C100.216 114.505 99.3027 115.547 98.6665 116.578C98.1327 117.444 97.742 118.793 97.2467 119.623C97.1549 119.777 97.1805 119.86 96.9435 119.819C93.7196 116.029 89.7954 113.08 85.1624 111.285C84.7973 107.373 86.0912 102.93 88.7471 99.9719C92.6969 101.566 96.0959 104.257 98.3056 107.939C99.3966 109.755 99.7489 111.876 101.013 113.583ZM74.5257 47.901C80.5166 47.4208 85.2969 49.937 88.3351 54.9992C88.9307 55.9937 89.1314 58.1769 90.9377 57.6284C92.4258 57.176 91.5269 55.3406 91.781 54.7537C92.3788 53.3708 96.7684 50.7778 98.2715 50.2891C103.724 48.5135 110.898 51.3092 112.301 57.1803C113.885 63.8217 111.391 70.5015 105.928 74.4433C101.521 74.1829 96.7364 73.9375 92.3169 74.1659C90.6388 74.2534 86.1702 74.6204 84.9724 75.6235C83.3562 76.9787 85.0941 79.4713 83.132 81.5073C80.8668 83.857 75.6381 84.3798 72.8839 82.6597C70.4372 81.1317 72.8113 77.7619 72.98 76.1463C73.2575 73.4659 71.3104 74.6226 70.1809 74.7101C69.2287 74.7826 68.2167 74.6866 67.2474 74.7101C66.3358 74.7335 65.849 75.314 64.8263 74.7207C64.5274 74.5479 63.4236 73.3293 63.114 72.9686C54.5825 63.0427 62.2152 48.8827 74.5279 47.8967L74.5257 47.901ZM63.3681 76.8399L69.7753 76.5753C69.6814 78.0052 69.1775 79.2323 69.2266 80.7091C69.4828 88.4262 84.3447 87.9545 86.3346 80.9802C87.1587 78.0927 85.2094 77.1387 89.1144 76.8314C92.0201 76.603 95.276 76.6244 98.1861 76.5646C102.954 76.4665 107.73 76.5646 112.476 76.8421L110.689 88.7143C108.648 89.8688 106.837 91.4246 105.539 93.3646C104.1 92.0926 102.418 90.3277 100.383 91.3073C98.3846 92.2698 95.797 95.0356 94.6825 96.9478C94.1423 97.874 93.6684 98.9517 93.4058 99.9889C91.5824 99.3017 89.9363 98.2539 87.9102 98.3136C87.1758 98.335 86.7295 98.9304 86.2918 99.5002C84.4066 101.946 83.1747 106.058 83.0936 109.121C83.085 109.435 83.3476 110.683 83.0509 110.739C82.468 110.572 81.7293 110.382 81.1336 110.316C80.5678 110.254 78.5268 110.169 78.0891 110.35C77.3696 110.649 76.9212 112.194 76.6757 112.95C73.1187 123.904 80.1601 139.054 88.6938 146.029C90.1285 147.2 92.097 148.496 94.2085 149.507L73.2426 149.791C73.2106 149.221 73.3088 148.63 73.2426 148.06C70.4094 124.265 66.2119 100.623 63.3702 76.8399H63.3681ZM72.1772 156.179L73.0995 151.908C73.3002 151.618 73.6055 151.678 73.898 151.639C77.2586 151.217 80.9671 151.887 84.3084 151.93C89.9064 152.002 95.5152 151.866 101.113 151.904L102.334 156.179H72.1772ZM102.377 147.597C102.179 148.257 101.939 148.906 101.653 149.533L101.551 149.405L99.6742 149.431C91.132 147.565 84.1995 139.443 80.7878 131.794C78.0677 125.692 76.6479 118.15 79.2655 111.786C86.6356 112.235 92.9425 117.414 97.078 123.253C101.722 129.809 104.741 139.707 102.377 147.597ZM98.3099 121.437C99.07 120.171 99.6571 118.793 100.479 117.561C102.834 114.025 106.389 110.826 110.008 108.626C110.322 108.436 111.767 107.499 111.972 107.54C116.678 111.757 119.346 118.447 119.045 124.726C118.996 125.742 118.727 126.749 118.746 127.773C118.588 128.209 116.831 128.736 116.291 128.996C112.971 130.601 109.811 132.739 107.456 135.623C106.609 136.662 105.964 137.887 105.242 139.01C104.523 132.62 102.055 126.67 98.312 121.439L98.3099 121.437ZM135.579 136.308C129.569 145.604 117.796 152.659 106.566 149.595C106.203 149.497 104.245 148.895 104.2 148.684C104.54 147.623 104.796 146.537 104.973 145.438C105.155 144.313 105.112 141.323 105.375 140.627C106.028 138.911 109.169 135.738 110.593 134.5C117.388 128.597 127.846 126.909 136.324 129.528C136.762 129.662 138.421 130.095 138.495 130.511C138.581 130.989 136.025 135.614 135.579 136.306V136.308Z" fill="black"/>
<path d="M113.915 45.3486C114.532 45.1778 115.273 43.8333 115.614 43.2486C116.897 41.0675 117.538 38.6346 117.877 36.1504C117.903 35.8623 117.696 35.7129 117.421 35.7983C116.62 37.2517 115.915 38.752 115.113 40.2074C114.504 41.3108 113.334 42.8025 112.899 43.8952C112.591 44.6678 113.005 45.5983 113.913 45.3486H113.915Z" fill="black"/>
<path d="M108.829 42.696C108.669 41.2341 107.789 38.0115 107.249 36.6115C107.117 36.2701 106.826 35.1006 106.346 35.4314C105.932 35.7173 106.359 42.856 107.194 43.6969C107.964 44.4716 108.957 43.8783 108.827 42.696H108.829Z" fill="black"/>
<path d="M117.879 49.8837C118.279 50.0331 119.504 49.3288 119.908 49.0962C121.55 48.1486 123.247 46.9236 124.842 45.8779C124.658 45.5834 124.609 45.7883 124.43 45.8139C122.869 46.0443 120.634 47.0197 119.263 47.82C118.727 48.1315 116.443 49.3459 117.879 49.8858V49.8837Z" fill="black"/>
</g>
<defs>
<clipPath id="clip0_1390_13440">
<rect width="83.7912" height="123.626" fill="white" transform="translate(54 34)"/>
</clipPath>
<clipPath id="clip1_1390_13440">
<rect width="83.7912" height="123.626" fill="white" transform="translate(56.7473 35.374)"/>
</clipPath>
</defs>
</svg>
