<svg width="280" height="281" viewBox="0 0 280 281" fill="none" xmlns="http://www.w3.org/2000/svg">
<g clip-path="url(#clip0_1238_42872)">
<circle cx="140" cy="140.581" r="140" fill="#F4B40C"/>
<g clip-path="url(#clip1_1238_42872)">
<path d="M218.679 192.466C217.83 192.079 212.554 190.752 212.526 190.4C215.822 184.677 217.545 176.726 216.321 170.192C216.004 168.492 215.404 167.033 214.958 165.408C214.841 164.981 215.019 164.429 214.841 164.088C213.881 162.266 209.568 162.862 207.774 162.525C209.137 156.955 208.134 150.292 205.013 145.447C204.214 144.206 202.084 141.459 200.8 140.914C199.395 140.315 195.317 142.159 193.666 142.069C193.933 141.682 194.033 141.126 194.065 140.667C194.447 135.201 189.631 126.412 185.215 123.378C183.296 122.058 180.406 122.868 178.323 123.456C177.645 123.65 176.967 123.869 176.297 124.109L178.886 107.519C179.796 103.245 174.035 103.521 171.06 102.804C170.532 102.678 170.254 103.137 170.393 102.147C178.515 94.0245 181.801 80.6156 177.741 69.71C173.81 59.1522 159.377 54.569 149.314 58.1803C144.381 59.9519 141.17 63.1472 137.845 67.0203C128.802 50.4951 106.325 49.161 92.5699 60.748C81.5721 70.0076 76.9454 87.1318 86.3736 99.1958C87.0264 100.031 90.4938 103.169 90.5687 103.492C90.8719 104.783 87.3296 104.152 87.4402 107.935C93.847 148.477 98.6021 189.289 105.701 229.712C105.765 232.223 101.053 241.579 102.715 243.182C103.193 243.641 109.108 244.14 110.395 244.204C126.819 245.011 143.885 243.544 160.376 244.204C165.841 243.458 159.37 235.077 159.388 232.409L158.179 230.885C158.485 230.803 158.76 230.745 158.953 230.752C159.67 230.781 163.134 232.223 164.368 232.524C186.952 238.004 211.127 221.945 219.496 201.041C220.067 199.613 221.023 196.895 221.258 195.432C221.544 193.667 220.003 193.072 218.683 192.469L218.679 192.466ZM212.115 166.566C214.438 174.456 212.615 182.557 209.155 189.823L202.27 189.479C197.661 189.751 193.006 189.93 188.568 191.386C188.283 191.204 188.322 191.1 188.336 190.813C188.372 190.063 188.857 188.722 188.953 187.843C189.199 185.555 189.078 182.382 188.761 180.09C188.418 177.619 187.509 175.173 187.23 172.731C192.413 169.475 198.203 167.319 204.242 166.452C206.839 166.079 209.558 165.795 212.115 166.563V166.566ZM195.549 145.279C196.156 145.103 199.666 144.221 199.98 144.296C200.978 144.54 203.137 149.252 203.55 150.4C204.935 154.251 204.624 158.436 204.41 162.446L203.761 163.091C199.191 163.665 194.729 165.103 190.63 167.219C189.963 167.563 186.082 170.041 185.875 169.862C184.073 165.06 180.895 160.703 177.385 156.998C177.06 156.356 178.697 155.198 179.143 154.786C183.756 150.518 189.538 147.021 195.553 145.279H195.549ZM184.148 125.601C186.638 128.893 188.718 132.558 189.859 136.543C190.466 138.655 190.516 140.907 191.5 142.894C186.642 145.167 182.026 147.943 177.988 151.54L174.898 155.012C173.857 154.481 172.929 153.932 171.834 154.771C171.52 149.873 170.147 145.329 167.817 141C167.239 139.924 165.991 138.461 165.602 137.536C165.231 136.647 166.854 134.423 167.478 133.742C171.663 129.173 178.387 127.107 184.152 125.601H184.148ZM156.324 163.597C155.746 158.519 152.318 154.445 149.111 150.73L145.148 147.018C147.134 141.058 151.643 136.076 157.073 133.039C157.479 133.128 161.614 138.07 162.199 138.852C166.059 143.977 168.046 150.317 168.249 156.679C163.943 159.534 159.969 162.88 156.413 166.645C156.192 165.652 156.438 164.594 156.324 163.597ZM155.25 168.133C153.919 169.683 152.393 171.433 151.33 173.165C150.438 174.621 149.785 176.887 148.957 178.282C148.804 178.541 148.847 178.681 148.451 178.612C143.064 172.243 136.508 167.287 128.767 164.271C128.157 157.698 130.318 150.231 134.756 145.261C141.356 147.94 147.035 152.462 150.727 158.648C152.55 161.7 153.138 165.265 155.25 168.133ZM110.995 57.7607C121.004 56.9538 128.991 61.182 134.068 69.6884C135.063 71.3596 135.398 75.0283 138.416 74.1067C140.902 73.3464 139.401 70.2622 139.825 69.276C140.824 66.9522 148.158 62.5949 150.67 61.7737C159.78 58.79 171.766 63.4879 174.11 73.3536C176.757 84.5138 172.59 95.7387 163.462 102.362C156.099 101.925 148.105 101.512 140.721 101.896C137.917 102.043 130.45 102.66 128.449 104.346C125.749 106.623 128.653 110.812 125.374 114.233C121.589 118.181 112.853 119.06 108.252 116.169C104.163 113.602 108.13 107.939 108.412 105.224C108.876 100.72 105.622 102.664 103.735 102.811C102.144 102.933 100.454 102.771 98.834 102.811C97.3108 102.85 96.4974 103.826 94.7887 102.829C94.2893 102.538 92.4451 100.49 91.9278 99.8843C77.6731 83.2049 90.426 59.4104 110.998 57.7535L110.995 57.7607ZM92.3523 106.39L103.058 105.945C102.901 108.348 102.059 110.41 102.141 112.892C102.569 125.859 127.4 125.067 130.725 113.347C132.102 108.495 128.845 106.892 135.37 106.375C140.225 105.992 145.665 106.028 150.527 105.927C158.493 105.762 166.472 105.927 174.402 106.393L171.417 126.343C168.006 128.284 164.981 130.898 162.812 134.158C160.408 132.02 157.597 129.055 154.198 130.701C150.859 132.318 146.535 136.966 144.673 140.179C143.771 141.735 142.979 143.546 142.54 145.289C139.493 144.135 136.743 142.374 133.358 142.474C132.131 142.51 131.385 143.511 130.654 144.468C127.504 148.578 125.446 155.489 125.31 160.635C125.296 161.162 125.735 163.26 125.239 163.353C124.265 163.073 123.031 162.754 122.035 162.643C121.09 162.539 117.68 162.396 116.948 162.7C115.746 163.202 114.997 165.799 114.587 167.068C108.644 185.476 120.409 210.935 134.667 222.655C137.064 224.623 140.353 226.8 143.881 228.5L108.851 228.977C108.797 228.02 108.961 227.026 108.851 226.069C104.117 186.082 97.1039 146.354 92.3559 106.39H92.3523ZM107.071 239.711L108.612 232.535C108.947 232.047 109.457 232.147 109.946 232.083C115.561 231.373 121.757 232.499 127.34 232.571C136.693 232.692 146.064 232.463 155.418 232.527L157.458 239.711H107.071ZM157.529 225.29C157.198 226.399 156.798 227.489 156.32 228.543L156.149 228.328L153.013 228.371C138.741 225.237 127.158 211.588 121.457 198.735C116.913 188.482 114.541 175.808 118.914 165.114C131.228 165.867 141.766 174.571 148.676 184.383C156.434 195.399 161.478 212.032 157.529 225.29ZM150.734 181.331C152.004 179.204 152.985 176.887 154.358 174.818C158.293 168.876 164.232 163.5 170.279 159.803C170.803 159.484 173.218 157.909 173.561 157.977C181.423 165.064 185.882 176.306 185.379 186.857C185.297 188.564 184.847 190.257 184.879 191.978C184.615 192.71 181.68 193.596 180.777 194.033C175.23 196.73 169.951 200.323 166.016 205.168C164.6 206.915 163.522 208.973 162.317 210.86C161.114 200.122 156.991 190.124 150.737 181.334L150.734 181.331ZM213.004 206.319C202.962 221.941 183.292 233.797 164.528 228.647C163.922 228.482 160.651 227.471 160.576 227.116C161.143 225.334 161.571 223.508 161.867 221.661C162.17 219.771 162.099 214.747 162.538 213.578C163.629 210.695 168.877 205.362 171.256 203.282C182.611 193.362 200.083 190.526 214.249 194.926C214.98 195.152 217.752 195.88 217.876 196.579C218.019 197.383 213.749 205.154 213.004 206.316V206.319Z" fill="black"/>
<path d="M176.807 53.4716C177.838 53.1847 179.076 50.9254 179.647 49.9428C181.791 46.2777 182.861 42.1894 183.428 38.0151C183.471 37.5309 183.125 37.2799 182.665 37.4233C181.327 39.8655 180.15 42.3866 178.809 44.8324C177.792 46.6865 175.837 49.1933 175.109 51.0294C174.596 52.3276 175.288 53.8912 176.804 53.4716H176.807Z" fill="black"/>
<path d="M168.311 49.014C168.043 46.5574 166.574 41.1422 165.671 38.7897C165.45 38.2159 164.965 36.2506 164.162 36.8065C163.47 37.2871 164.183 49.2829 165.578 50.6959C166.866 51.9977 168.525 51.0007 168.307 49.014H168.311Z" fill="black"/>
<path d="M183.431 61.0923C184.099 61.3433 186.146 60.1599 186.82 59.769C189.564 58.1767 192.4 56.1182 195.064 54.361C194.757 53.8661 194.675 54.2104 194.376 54.2534C191.768 54.6407 188.033 56.2796 185.743 57.6244C184.848 58.148 181.031 60.1886 183.431 61.0959V61.0923Z" fill="black"/>
</g>
</g>
<defs>
<clipPath id="clip0_1238_42872">
<rect width="280" height="281" fill="white"/>
</clipPath>
<clipPath id="clip1_1238_42872">
<rect width="140" height="207.742" fill="white" transform="translate(81.291 36.7097)"/>
</clipPath>
</defs>
</svg>
